G04 start of page 3 for group 1 idx 1 *
G04 Title: (unknown), ground *
G04 Creator: pcb 20110918 *
G04 CreationDate: Tue 15 Sep 2015 23:47:47 GMT UTC *
G04 For: ksarkies *
G04 Format: Gerber/RS-274X *
G04 PCB-Dimensions: 130000 160000 *
G04 PCB-Coordinate-Origin: lower left *
%MOIN*%
%FSLAX25Y25*%
%LNBOTTOM*%
%ADD42C,0.0280*%
%ADD41C,0.0400*%
%ADD40C,0.0350*%
%ADD39C,0.0280*%
%ADD38C,0.0440*%
%ADD37C,0.0300*%
%ADD36C,0.0380*%
%ADD35C,0.0850*%
%ADD34C,0.0800*%
%ADD33C,0.0700*%
%ADD32C,0.0680*%
%ADD31C,0.0650*%
%ADD30C,0.0800*%
%ADD29C,0.0600*%
%ADD28C,0.0001*%
G54D28*G36*
X119992Y160000D02*X129500D01*
Y0D01*
X119992D01*
Y3481D01*
X120000Y3480D01*
X121020Y3560D01*
X122015Y3799D01*
X122960Y4191D01*
X123832Y4725D01*
X124610Y5390D01*
X125275Y6168D01*
X125809Y7040D01*
X126201Y7985D01*
X126440Y8980D01*
X126500Y10000D01*
X126440Y11020D01*
X126201Y12015D01*
X125809Y12960D01*
X125275Y13832D01*
X124610Y14610D01*
X123832Y15275D01*
X122960Y15809D01*
X122015Y16201D01*
X121020Y16440D01*
X120000Y16520D01*
X119992Y16519D01*
Y90085D01*
X120000Y90085D01*
X120769Y90145D01*
X121519Y90325D01*
X122231Y90621D01*
X122889Y91024D01*
X123476Y91524D01*
X123976Y92111D01*
X124379Y92769D01*
X124675Y93481D01*
X124855Y94231D01*
X124900Y95000D01*
X124855Y95769D01*
X124675Y96519D01*
X124379Y97231D01*
X123976Y97889D01*
X123476Y98476D01*
X122889Y98976D01*
X122231Y99379D01*
X121519Y99675D01*
X120769Y99855D01*
X120000Y99915D01*
X119992Y99915D01*
Y130107D01*
X123635Y130114D01*
X123865Y130169D01*
X124083Y130259D01*
X124284Y130383D01*
X124464Y130536D01*
X124617Y130716D01*
X124741Y130917D01*
X124831Y131135D01*
X124886Y131365D01*
X124900Y131600D01*
X124886Y138635D01*
X124831Y138865D01*
X124741Y139083D01*
X124617Y139284D01*
X124464Y139464D01*
X124284Y139617D01*
X124083Y139741D01*
X123865Y139831D01*
X123635Y139886D01*
X123400Y139900D01*
X119992Y139893D01*
Y143481D01*
X120000Y143480D01*
X121020Y143560D01*
X122015Y143799D01*
X122960Y144191D01*
X123832Y144725D01*
X124610Y145390D01*
X125275Y146168D01*
X125809Y147040D01*
X126201Y147985D01*
X126440Y148980D01*
X126500Y150000D01*
X126440Y151020D01*
X126201Y152015D01*
X125809Y152960D01*
X125275Y153832D01*
X124610Y154610D01*
X123832Y155275D01*
X122960Y155809D01*
X122015Y156201D01*
X121020Y156440D01*
X120000Y156520D01*
X119992Y156519D01*
Y160000D01*
G37*
G36*
X115464Y5326D02*X116168Y4725D01*
X117040Y4191D01*
X117985Y3799D01*
X118980Y3560D01*
X119992Y3481D01*
Y0D01*
X115464D01*
Y5326D01*
G37*
G36*
Y93147D02*X115621Y92769D01*
X116024Y92111D01*
X116524Y91524D01*
X117111Y91024D01*
X117769Y90621D01*
X118481Y90325D01*
X119231Y90145D01*
X119992Y90085D01*
Y16519D01*
X118980Y16440D01*
X117985Y16201D01*
X117040Y15809D01*
X116168Y15275D01*
X115464Y14674D01*
Y53472D01*
X115675Y53981D01*
X115855Y54731D01*
X115900Y55500D01*
X115855Y56269D01*
X115675Y57019D01*
X115464Y57528D01*
Y79064D01*
X115549Y79089D01*
X115655Y79139D01*
X115753Y79206D01*
X115839Y79287D01*
X115911Y79380D01*
X115966Y79484D01*
X116141Y79912D01*
X116270Y80355D01*
X116357Y80809D01*
X116400Y81269D01*
Y81731D01*
X116357Y82191D01*
X116270Y82645D01*
X116141Y83088D01*
X115971Y83518D01*
X115915Y83622D01*
X115842Y83716D01*
X115755Y83797D01*
X115657Y83864D01*
X115550Y83914D01*
X115464Y83940D01*
Y93147D01*
G37*
G36*
Y130621D02*X115536Y130536D01*
X115716Y130383D01*
X115917Y130259D01*
X116135Y130169D01*
X116365Y130114D01*
X116600Y130100D01*
X119992Y130107D01*
Y99915D01*
X119231Y99855D01*
X118481Y99675D01*
X117769Y99379D01*
X117111Y98976D01*
X116524Y98476D01*
X116024Y97889D01*
X115621Y97231D01*
X115464Y96853D01*
Y130621D01*
G37*
G36*
Y145326D02*X116168Y144725D01*
X117040Y144191D01*
X117985Y143799D01*
X118980Y143560D01*
X119992Y143481D01*
Y139893D01*
X116365Y139886D01*
X116135Y139831D01*
X115917Y139741D01*
X115716Y139617D01*
X115536Y139464D01*
X115464Y139379D01*
Y145326D01*
G37*
G36*
Y160000D02*X119992D01*
Y156519D01*
X118980Y156440D01*
X117985Y156201D01*
X117040Y155809D01*
X116168Y155275D01*
X115464Y154674D01*
Y160000D01*
G37*
G36*
Y14674D02*X115390Y14610D01*
X114725Y13832D01*
X114191Y12960D01*
X113799Y12015D01*
X113560Y11020D01*
X113480Y10000D01*
X113560Y8980D01*
X113799Y7985D01*
X114191Y7040D01*
X114725Y6168D01*
X115390Y5390D01*
X115464Y5326D01*
Y0D01*
X110500D01*
Y50624D01*
X111000Y50585D01*
X111769Y50645D01*
X112519Y50825D01*
X113231Y51121D01*
X113889Y51524D01*
X114476Y52024D01*
X114976Y52611D01*
X115379Y53269D01*
X115464Y53472D01*
Y14674D01*
G37*
G36*
X110500Y160000D02*X115464D01*
Y154674D01*
X115390Y154610D01*
X114725Y153832D01*
X114191Y152960D01*
X113799Y152015D01*
X113560Y151020D01*
X113480Y150000D01*
X113560Y148980D01*
X113799Y147985D01*
X114058Y147361D01*
X114041Y147342D01*
X113980Y147242D01*
X113935Y147132D01*
X113907Y147018D01*
X113900Y146900D01*
Y143100D01*
X113907Y142982D01*
X113935Y142868D01*
X113980Y142758D01*
X114041Y142658D01*
X114118Y142568D01*
X114208Y142491D01*
X114308Y142430D01*
X114418Y142385D01*
X114532Y142357D01*
X114650Y142348D01*
X114768Y142357D01*
X114882Y142385D01*
X114992Y142430D01*
X115092Y142491D01*
X115182Y142568D01*
X115259Y142658D01*
X115320Y142758D01*
X115365Y142868D01*
X115393Y142982D01*
X115400Y143100D01*
Y145381D01*
X115464Y145326D01*
Y139379D01*
X115383Y139284D01*
X115259Y139083D01*
X115169Y138865D01*
X115114Y138635D01*
X115100Y138400D01*
X115114Y131365D01*
X115169Y131135D01*
X115259Y130917D01*
X115383Y130716D01*
X115464Y130621D01*
Y96853D01*
X115325Y96519D01*
X115145Y95769D01*
X115085Y95000D01*
X115145Y94231D01*
X115325Y93481D01*
X115464Y93147D01*
Y83940D01*
X115436Y83948D01*
X115318Y83962D01*
X115200Y83959D01*
X115083Y83937D01*
X114972Y83896D01*
X114868Y83839D01*
X114774Y83766D01*
X114693Y83680D01*
X114626Y83582D01*
X114575Y83475D01*
X114542Y83361D01*
X114527Y83243D01*
X114531Y83124D01*
X114553Y83008D01*
X114596Y82897D01*
X114717Y82601D01*
X114806Y82293D01*
X114866Y81979D01*
X114896Y81660D01*
Y81340D01*
X114866Y81021D01*
X114806Y80707D01*
X114717Y80399D01*
X114599Y80101D01*
X114557Y79991D01*
X114535Y79875D01*
X114531Y79757D01*
X114546Y79640D01*
X114579Y79527D01*
X114629Y79420D01*
X114696Y79322D01*
X114776Y79236D01*
X114870Y79164D01*
X114973Y79107D01*
X115084Y79067D01*
X115200Y79045D01*
X115318Y79041D01*
X115435Y79056D01*
X115464Y79064D01*
Y57528D01*
X115379Y57731D01*
X114976Y58389D01*
X114476Y58976D01*
X113889Y59476D01*
X113231Y59879D01*
X112519Y60175D01*
X111769Y60355D01*
X111000Y60415D01*
X110500Y60376D01*
Y76702D01*
X110809Y76643D01*
X111269Y76600D01*
X111731D01*
X112191Y76643D01*
X112645Y76730D01*
X113088Y76859D01*
X113518Y77029D01*
X113622Y77085D01*
X113716Y77158D01*
X113797Y77245D01*
X113864Y77343D01*
X113914Y77450D01*
X113948Y77564D01*
X113962Y77682D01*
X113959Y77800D01*
X113936Y77917D01*
X113896Y78028D01*
X113839Y78132D01*
X113766Y78226D01*
X113680Y78307D01*
X113582Y78374D01*
X113475Y78425D01*
X113361Y78458D01*
X113243Y78473D01*
X113124Y78469D01*
X113008Y78447D01*
X112897Y78404D01*
X112601Y78283D01*
X112293Y78194D01*
X111979Y78134D01*
X111660Y78104D01*
X111340D01*
X111021Y78134D01*
X110707Y78194D01*
X110500Y78254D01*
Y84746D01*
X110707Y84806D01*
X111021Y84866D01*
X111340Y84896D01*
X111660D01*
X111979Y84866D01*
X112293Y84806D01*
X112601Y84717D01*
X112899Y84599D01*
X113009Y84557D01*
X113125Y84535D01*
X113243Y84531D01*
X113360Y84546D01*
X113473Y84579D01*
X113580Y84629D01*
X113678Y84696D01*
X113764Y84776D01*
X113836Y84870D01*
X113893Y84973D01*
X113933Y85084D01*
X113955Y85200D01*
X113959Y85318D01*
X113944Y85435D01*
X113911Y85549D01*
X113861Y85655D01*
X113794Y85753D01*
X113713Y85839D01*
X113620Y85911D01*
X113516Y85966D01*
X113088Y86141D01*
X112645Y86270D01*
X112191Y86357D01*
X111731Y86400D01*
X111269D01*
X110809Y86357D01*
X110500Y86298D01*
Y140100D01*
X112400D01*
X112518Y140107D01*
X112632Y140135D01*
X112742Y140180D01*
X112842Y140241D01*
X112932Y140318D01*
X113009Y140408D01*
X113070Y140508D01*
X113115Y140618D01*
X113143Y140732D01*
X113152Y140850D01*
X113143Y140968D01*
X113115Y141082D01*
X113070Y141192D01*
X113009Y141292D01*
X112932Y141382D01*
X112842Y141459D01*
X112742Y141520D01*
X112632Y141565D01*
X112518Y141593D01*
X112400Y141600D01*
X110500D01*
Y148400D01*
X112400D01*
X112518Y148407D01*
X112632Y148435D01*
X112742Y148480D01*
X112842Y148541D01*
X112932Y148618D01*
X113009Y148708D01*
X113070Y148808D01*
X113115Y148918D01*
X113143Y149032D01*
X113152Y149150D01*
X113143Y149268D01*
X113115Y149382D01*
X113070Y149492D01*
X113009Y149592D01*
X112932Y149682D01*
X112842Y149759D01*
X112742Y149820D01*
X112632Y149865D01*
X112518Y149893D01*
X112400Y149900D01*
X110500D01*
Y160000D01*
G37*
G36*
X106350Y53922D02*X106621Y53269D01*
X107024Y52611D01*
X107524Y52024D01*
X108111Y51524D01*
X108769Y51121D01*
X109481Y50825D01*
X110231Y50645D01*
X110500Y50624D01*
Y0D01*
X106350D01*
Y6014D01*
X106706Y6042D01*
X107395Y6207D01*
X108049Y6478D01*
X108653Y6848D01*
X109192Y7308D01*
X109652Y7847D01*
X110022Y8451D01*
X110293Y9105D01*
X110458Y9794D01*
X110500Y10500D01*
X110458Y11206D01*
X110293Y11895D01*
X110022Y12549D01*
X109652Y13153D01*
X109192Y13692D01*
X108653Y14152D01*
X108049Y14522D01*
X107395Y14793D01*
X106706Y14958D01*
X106350Y14986D01*
Y16014D01*
X106706Y16042D01*
X107395Y16207D01*
X108049Y16478D01*
X108653Y16848D01*
X109192Y17308D01*
X109652Y17847D01*
X110022Y18451D01*
X110293Y19105D01*
X110458Y19794D01*
X110500Y20500D01*
X110458Y21206D01*
X110293Y21895D01*
X110022Y22549D01*
X109652Y23153D01*
X109192Y23692D01*
X108653Y24152D01*
X108049Y24522D01*
X107395Y24793D01*
X106706Y24958D01*
X106350Y24986D01*
Y26014D01*
X106706Y26042D01*
X107395Y26207D01*
X108049Y26478D01*
X108653Y26848D01*
X109192Y27308D01*
X109652Y27847D01*
X110022Y28451D01*
X110293Y29105D01*
X110458Y29794D01*
X110500Y30500D01*
X110458Y31206D01*
X110293Y31895D01*
X110022Y32549D01*
X109652Y33153D01*
X109192Y33692D01*
X108653Y34152D01*
X108049Y34522D01*
X107395Y34793D01*
X106706Y34958D01*
X106350Y34986D01*
Y36014D01*
X106706Y36042D01*
X107395Y36207D01*
X108049Y36478D01*
X108653Y36848D01*
X109192Y37308D01*
X109652Y37847D01*
X110022Y38451D01*
X110293Y39105D01*
X110458Y39794D01*
X110500Y40500D01*
X110458Y41206D01*
X110293Y41895D01*
X110022Y42549D01*
X109652Y43153D01*
X109192Y43692D01*
X108653Y44152D01*
X108049Y44522D01*
X107395Y44793D01*
X106706Y44958D01*
X106350Y44986D01*
Y53922D01*
G37*
G36*
X107536Y160000D02*X110500D01*
Y149900D01*
X108600D01*
X108482Y149893D01*
X108368Y149865D01*
X108258Y149820D01*
X108158Y149759D01*
X108068Y149682D01*
X107991Y149592D01*
X107930Y149492D01*
X107885Y149382D01*
X107857Y149268D01*
X107848Y149150D01*
X107857Y149032D01*
X107885Y148918D01*
X107930Y148808D01*
X107991Y148708D01*
X108068Y148618D01*
X108158Y148541D01*
X108258Y148480D01*
X108368Y148435D01*
X108482Y148407D01*
X108600Y148400D01*
X110500D01*
Y141600D01*
X108600D01*
X108482Y141593D01*
X108368Y141565D01*
X108258Y141520D01*
X108158Y141459D01*
X108068Y141382D01*
X107991Y141292D01*
X107930Y141192D01*
X107885Y141082D01*
X107857Y140968D01*
X107848Y140850D01*
X107857Y140732D01*
X107885Y140618D01*
X107930Y140508D01*
X107991Y140408D01*
X108068Y140318D01*
X108158Y140241D01*
X108258Y140180D01*
X108368Y140135D01*
X108482Y140107D01*
X108600Y140100D01*
X110500D01*
Y86298D01*
X110355Y86270D01*
X109912Y86141D01*
X109482Y85971D01*
X109378Y85915D01*
X109284Y85842D01*
X109203Y85755D01*
X109136Y85657D01*
X109086Y85550D01*
X109052Y85436D01*
X109038Y85318D01*
X109041Y85200D01*
X109063Y85083D01*
X109104Y84972D01*
X109161Y84868D01*
X109234Y84774D01*
X109320Y84693D01*
X109418Y84626D01*
X109525Y84575D01*
X109639Y84542D01*
X109757Y84527D01*
X109876Y84531D01*
X109992Y84553D01*
X110103Y84596D01*
X110399Y84717D01*
X110500Y84746D01*
Y78254D01*
X110399Y78283D01*
X110101Y78401D01*
X109991Y78443D01*
X109875Y78465D01*
X109757Y78469D01*
X109640Y78454D01*
X109527Y78421D01*
X109420Y78371D01*
X109322Y78304D01*
X109236Y78224D01*
X109164Y78130D01*
X109107Y78027D01*
X109067Y77916D01*
X109045Y77800D01*
X109041Y77682D01*
X109056Y77565D01*
X109089Y77451D01*
X109139Y77345D01*
X109206Y77247D01*
X109287Y77161D01*
X109380Y77089D01*
X109484Y77034D01*
X109912Y76859D01*
X110355Y76730D01*
X110500Y76702D01*
Y60376D01*
X110231Y60355D01*
X109481Y60175D01*
X108769Y59879D01*
X108111Y59476D01*
X107536Y58986D01*
Y79060D01*
X107564Y79052D01*
X107682Y79038D01*
X107800Y79041D01*
X107917Y79064D01*
X108028Y79104D01*
X108132Y79161D01*
X108226Y79234D01*
X108307Y79320D01*
X108374Y79418D01*
X108425Y79525D01*
X108458Y79639D01*
X108473Y79757D01*
X108469Y79876D01*
X108447Y79992D01*
X108404Y80103D01*
X108283Y80399D01*
X108194Y80707D01*
X108134Y81021D01*
X108104Y81340D01*
Y81660D01*
X108134Y81979D01*
X108194Y82293D01*
X108283Y82601D01*
X108401Y82899D01*
X108443Y83009D01*
X108465Y83125D01*
X108469Y83243D01*
X108454Y83360D01*
X108421Y83473D01*
X108371Y83580D01*
X108304Y83678D01*
X108224Y83764D01*
X108130Y83836D01*
X108027Y83893D01*
X107916Y83933D01*
X107800Y83955D01*
X107682Y83959D01*
X107565Y83944D01*
X107536Y83936D01*
Y96277D01*
X107653Y96348D01*
X108192Y96808D01*
X108652Y97347D01*
X109022Y97951D01*
X109293Y98605D01*
X109458Y99294D01*
X109500Y100000D01*
X109458Y100706D01*
X109293Y101395D01*
X109022Y102049D01*
X108652Y102653D01*
X108192Y103192D01*
X107653Y103652D01*
X107536Y103723D01*
Y106277D01*
X107653Y106348D01*
X108192Y106808D01*
X108652Y107347D01*
X109022Y107951D01*
X109293Y108605D01*
X109458Y109294D01*
X109500Y110000D01*
X109458Y110706D01*
X109293Y111395D01*
X109022Y112049D01*
X108652Y112653D01*
X108192Y113192D01*
X107653Y113652D01*
X107536Y113723D01*
Y116277D01*
X107653Y116348D01*
X108192Y116808D01*
X108652Y117347D01*
X109022Y117951D01*
X109293Y118605D01*
X109458Y119294D01*
X109500Y120000D01*
X109458Y120706D01*
X109293Y121395D01*
X109022Y122049D01*
X108652Y122653D01*
X108192Y123192D01*
X107653Y123652D01*
X107536Y123723D01*
Y126277D01*
X107653Y126348D01*
X108192Y126808D01*
X108652Y127347D01*
X109022Y127951D01*
X109293Y128605D01*
X109458Y129294D01*
X109500Y130000D01*
X109458Y130706D01*
X109293Y131395D01*
X109022Y132049D01*
X108652Y132653D01*
X108192Y133192D01*
X107653Y133652D01*
X107536Y133723D01*
Y160000D01*
G37*
G36*
Y123723D02*X107049Y124022D01*
X106395Y124293D01*
X106350Y124304D01*
Y125696D01*
X106395Y125707D01*
X107049Y125978D01*
X107536Y126277D01*
Y123723D01*
G37*
G36*
Y113723D02*X107049Y114022D01*
X106395Y114293D01*
X106350Y114304D01*
Y115696D01*
X106395Y115707D01*
X107049Y115978D01*
X107536Y116277D01*
Y113723D01*
G37*
G36*
Y103723D02*X107049Y104022D01*
X106395Y104293D01*
X106350Y104304D01*
Y105696D01*
X106395Y105707D01*
X107049Y105978D01*
X107536Y106277D01*
Y103723D01*
G37*
G36*
Y58986D02*X107524Y58976D01*
X107024Y58389D01*
X106621Y57731D01*
X106350Y57078D01*
Y95696D01*
X106395Y95707D01*
X107049Y95978D01*
X107536Y96277D01*
Y83936D01*
X107451Y83911D01*
X107345Y83861D01*
X107247Y83794D01*
X107161Y83713D01*
X107089Y83620D01*
X107034Y83516D01*
X106859Y83088D01*
X106730Y82645D01*
X106643Y82191D01*
X106600Y81731D01*
Y81269D01*
X106643Y80809D01*
X106730Y80355D01*
X106859Y79912D01*
X107029Y79482D01*
X107085Y79378D01*
X107158Y79284D01*
X107245Y79203D01*
X107343Y79136D01*
X107450Y79086D01*
X107536Y79060D01*
Y58986D01*
G37*
G36*
X106350Y160000D02*X107536D01*
Y133723D01*
X107049Y134022D01*
X106395Y134293D01*
X106350Y134304D01*
Y142348D01*
X106468Y142357D01*
X106582Y142385D01*
X106692Y142430D01*
X106792Y142491D01*
X106882Y142568D01*
X106959Y142658D01*
X107020Y142758D01*
X107065Y142868D01*
X107093Y142982D01*
X107100Y143100D01*
Y146900D01*
X107093Y147018D01*
X107065Y147132D01*
X107020Y147242D01*
X106959Y147342D01*
X106882Y147432D01*
X106792Y147509D01*
X106692Y147570D01*
X106582Y147615D01*
X106468Y147643D01*
X106350Y147652D01*
Y160000D01*
G37*
G36*
Y124304D02*X105706Y124458D01*
X105000Y124514D01*
X104993Y124513D01*
Y125487D01*
X105000Y125486D01*
X105706Y125542D01*
X106350Y125696D01*
Y124304D01*
G37*
G36*
Y114304D02*X105706Y114458D01*
X105000Y114514D01*
X104993Y114513D01*
Y115487D01*
X105000Y115486D01*
X105706Y115542D01*
X106350Y115696D01*
Y114304D01*
G37*
G36*
Y104304D02*X105706Y104458D01*
X105000Y104514D01*
X104993Y104513D01*
Y105487D01*
X105000Y105486D01*
X105706Y105542D01*
X106350Y105696D01*
Y104304D01*
G37*
G36*
Y34986D02*X106000Y35014D01*
X105294Y34958D01*
X104993Y34886D01*
Y36114D01*
X105294Y36042D01*
X106000Y35986D01*
X106350Y36014D01*
Y34986D01*
G37*
G36*
Y24986D02*X106000Y25014D01*
X105294Y24958D01*
X104993Y24886D01*
Y26114D01*
X105294Y26042D01*
X106000Y25986D01*
X106350Y26014D01*
Y24986D01*
G37*
G36*
Y14986D02*X106000Y15014D01*
X105294Y14958D01*
X104993Y14886D01*
Y16114D01*
X105294Y16042D01*
X106000Y15986D01*
X106350Y16014D01*
Y14986D01*
G37*
G36*
Y0D02*X104993D01*
Y6114D01*
X105294Y6042D01*
X106000Y5986D01*
X106350Y6014D01*
Y0D01*
G37*
G36*
Y57078D02*X106325Y57019D01*
X106145Y56269D01*
X106085Y55500D01*
X106145Y54731D01*
X106325Y53981D01*
X106350Y53922D01*
Y44986D01*
X106000Y45014D01*
X105294Y44958D01*
X104993Y44886D01*
Y95487D01*
X105000Y95486D01*
X105706Y95542D01*
X106350Y95696D01*
Y57078D01*
G37*
G36*
X104993Y160000D02*X106350D01*
Y147652D01*
X106232Y147643D01*
X106118Y147615D01*
X106008Y147570D01*
X105908Y147509D01*
X105818Y147432D01*
X105741Y147342D01*
X105680Y147242D01*
X105635Y147132D01*
X105607Y147018D01*
X105600Y146900D01*
Y143100D01*
X105607Y142982D01*
X105635Y142868D01*
X105680Y142758D01*
X105741Y142658D01*
X105818Y142568D01*
X105908Y142491D01*
X106008Y142430D01*
X106118Y142385D01*
X106232Y142357D01*
X106350Y142348D01*
Y134304D01*
X105706Y134458D01*
X105000Y134514D01*
X104993Y134513D01*
Y160000D01*
G37*
G36*
X79613D02*X104993D01*
Y134513D01*
X104294Y134458D01*
X103605Y134293D01*
X102951Y134022D01*
X102347Y133652D01*
X101808Y133192D01*
X101348Y132653D01*
X100978Y132049D01*
X100707Y131395D01*
X100542Y130706D01*
X100486Y130000D01*
X100542Y129294D01*
X100707Y128605D01*
X100978Y127951D01*
X101348Y127347D01*
X101808Y126808D01*
X102347Y126348D01*
X102951Y125978D01*
X103605Y125707D01*
X104294Y125542D01*
X104993Y125487D01*
Y124513D01*
X104294Y124458D01*
X103605Y124293D01*
X102951Y124022D01*
X102347Y123652D01*
X101808Y123192D01*
X101348Y122653D01*
X100978Y122049D01*
X100707Y121395D01*
X100542Y120706D01*
X100486Y120000D01*
X100542Y119294D01*
X100707Y118605D01*
X100978Y117951D01*
X101348Y117347D01*
X101808Y116808D01*
X102347Y116348D01*
X102951Y115978D01*
X103605Y115707D01*
X104294Y115542D01*
X104993Y115487D01*
Y114513D01*
X104294Y114458D01*
X103605Y114293D01*
X102951Y114022D01*
X102347Y113652D01*
X101808Y113192D01*
X101348Y112653D01*
X100978Y112049D01*
X100707Y111395D01*
X100542Y110706D01*
X100486Y110000D01*
X100542Y109294D01*
X100707Y108605D01*
X100978Y107951D01*
X101348Y107347D01*
X101808Y106808D01*
X102347Y106348D01*
X102951Y105978D01*
X103605Y105707D01*
X104294Y105542D01*
X104993Y105487D01*
Y104513D01*
X104294Y104458D01*
X103605Y104293D01*
X102951Y104022D01*
X102347Y103652D01*
X101808Y103192D01*
X101348Y102653D01*
X100978Y102049D01*
X100707Y101395D01*
X100542Y100706D01*
X100486Y100000D01*
X100542Y99294D01*
X100707Y98605D01*
X100978Y97951D01*
X101348Y97347D01*
X101808Y96808D01*
X102347Y96348D01*
X102951Y95978D01*
X103605Y95707D01*
X104294Y95542D01*
X104993Y95487D01*
Y44886D01*
X104605Y44793D01*
X103951Y44522D01*
X103347Y44152D01*
X102808Y43692D01*
X102348Y43153D01*
X101978Y42549D01*
X101707Y41895D01*
X101542Y41206D01*
X101486Y40500D01*
X101542Y39794D01*
X101707Y39105D01*
X101978Y38451D01*
X102348Y37847D01*
X102808Y37308D01*
X103347Y36848D01*
X103951Y36478D01*
X104605Y36207D01*
X104993Y36114D01*
Y34886D01*
X104605Y34793D01*
X103951Y34522D01*
X103347Y34152D01*
X102808Y33692D01*
X102348Y33153D01*
X101978Y32549D01*
X101707Y31895D01*
X101542Y31206D01*
X101486Y30500D01*
X101542Y29794D01*
X101707Y29105D01*
X101978Y28451D01*
X102348Y27847D01*
X102808Y27308D01*
X103347Y26848D01*
X103951Y26478D01*
X104605Y26207D01*
X104993Y26114D01*
Y24886D01*
X104605Y24793D01*
X103951Y24522D01*
X103347Y24152D01*
X102808Y23692D01*
X102348Y23153D01*
X101978Y22549D01*
X101707Y21895D01*
X101542Y21206D01*
X101486Y20500D01*
X101542Y19794D01*
X101707Y19105D01*
X101978Y18451D01*
X102348Y17847D01*
X102808Y17308D01*
X103347Y16848D01*
X103951Y16478D01*
X104605Y16207D01*
X104993Y16114D01*
Y14886D01*
X104605Y14793D01*
X103951Y14522D01*
X103347Y14152D01*
X102808Y13692D01*
X102348Y13153D01*
X101978Y12549D01*
X101707Y11895D01*
X101542Y11206D01*
X101486Y10500D01*
X101542Y9794D01*
X101707Y9105D01*
X101978Y8451D01*
X102348Y7847D01*
X102808Y7308D01*
X103347Y6848D01*
X103951Y6478D01*
X104605Y6207D01*
X104993Y6114D01*
Y0D01*
X79613D01*
Y8353D01*
X79656Y8360D01*
X79768Y8397D01*
X79873Y8452D01*
X79968Y8522D01*
X80051Y8606D01*
X80119Y8702D01*
X80170Y8808D01*
X80318Y9216D01*
X80422Y9637D01*
X80484Y10067D01*
X80505Y10500D01*
X80484Y10933D01*
X80422Y11363D01*
X80318Y11784D01*
X80175Y12194D01*
X80122Y12300D01*
X80053Y12396D01*
X79970Y12481D01*
X79875Y12551D01*
X79769Y12606D01*
X79657Y12643D01*
X79613Y12651D01*
Y17802D01*
X79652Y17847D01*
X80022Y18451D01*
X80293Y19105D01*
X80458Y19794D01*
X80500Y20500D01*
X80458Y21206D01*
X80293Y21895D01*
X80022Y22549D01*
X79652Y23153D01*
X79613Y23198D01*
Y27802D01*
X79652Y27847D01*
X80022Y28451D01*
X80293Y29105D01*
X80458Y29794D01*
X80500Y30500D01*
X80458Y31206D01*
X80293Y31895D01*
X80022Y32549D01*
X79652Y33153D01*
X79613Y33198D01*
Y36130D01*
X79683Y36159D01*
X79884Y36283D01*
X80064Y36436D01*
X80217Y36616D01*
X80341Y36817D01*
X80431Y37035D01*
X80486Y37265D01*
X80500Y37500D01*
X80486Y43735D01*
X80431Y43965D01*
X80341Y44183D01*
X80217Y44384D01*
X80064Y44564D01*
X79884Y44717D01*
X79683Y44841D01*
X79613Y44870D01*
Y160000D01*
G37*
G36*
Y33198D02*X79192Y33692D01*
X78653Y34152D01*
X78049Y34522D01*
X77395Y34793D01*
X76706Y34958D01*
X76000Y35014D01*
X75294Y34958D01*
X74993Y34886D01*
Y36004D01*
X79235Y36014D01*
X79465Y36069D01*
X79613Y36130D01*
Y33198D01*
G37*
G36*
Y23198D02*X79192Y23692D01*
X78653Y24152D01*
X78049Y24522D01*
X77395Y24793D01*
X76706Y24958D01*
X76000Y25014D01*
X75294Y24958D01*
X74993Y24886D01*
Y26114D01*
X75294Y26042D01*
X76000Y25986D01*
X76706Y26042D01*
X77395Y26207D01*
X78049Y26478D01*
X78653Y26848D01*
X79192Y27308D01*
X79613Y27802D01*
Y23198D01*
G37*
G36*
Y0D02*X74993D01*
Y6114D01*
X75137Y6078D01*
X75567Y6016D01*
X76000Y5995D01*
X76433Y6016D01*
X76863Y6078D01*
X77284Y6182D01*
X77694Y6325D01*
X77800Y6378D01*
X77896Y6447D01*
X77981Y6530D01*
X78051Y6625D01*
X78106Y6731D01*
X78143Y6843D01*
X78163Y6960D01*
X78164Y7079D01*
X78146Y7196D01*
X78110Y7309D01*
X78057Y7415D01*
X77988Y7512D01*
X77905Y7596D01*
X77809Y7667D01*
X77704Y7721D01*
X77592Y7759D01*
X77475Y7778D01*
X77356Y7779D01*
X77239Y7761D01*
X77126Y7723D01*
X76855Y7624D01*
X76575Y7556D01*
X76289Y7514D01*
X76000Y7500D01*
X75711Y7514D01*
X75425Y7556D01*
X75145Y7624D01*
X74993Y7678D01*
Y13320D01*
X75145Y13376D01*
X75425Y13444D01*
X75711Y13486D01*
X76000Y13500D01*
X76289Y13486D01*
X76575Y13444D01*
X76855Y13376D01*
X77128Y13280D01*
X77239Y13242D01*
X77356Y13225D01*
X77474Y13225D01*
X77591Y13245D01*
X77703Y13282D01*
X77807Y13336D01*
X77902Y13406D01*
X77985Y13491D01*
X78054Y13587D01*
X78107Y13692D01*
X78143Y13805D01*
X78160Y13921D01*
X78159Y14039D01*
X78140Y14156D01*
X78103Y14268D01*
X78048Y14373D01*
X77978Y14468D01*
X77894Y14551D01*
X77798Y14619D01*
X77692Y14670D01*
X77284Y14818D01*
X76863Y14922D01*
X76433Y14984D01*
X76000Y15005D01*
X75567Y14984D01*
X75137Y14922D01*
X74993Y14886D01*
Y16114D01*
X75294Y16042D01*
X76000Y15986D01*
X76706Y16042D01*
X77395Y16207D01*
X78049Y16478D01*
X78653Y16848D01*
X79192Y17308D01*
X79613Y17802D01*
Y12651D01*
X79540Y12663D01*
X79421Y12664D01*
X79304Y12646D01*
X79191Y12610D01*
X79085Y12557D01*
X78988Y12488D01*
X78904Y12405D01*
X78833Y12309D01*
X78779Y12204D01*
X78741Y12092D01*
X78722Y11975D01*
X78721Y11856D01*
X78739Y11739D01*
X78777Y11626D01*
X78876Y11355D01*
X78944Y11075D01*
X78986Y10789D01*
X79000Y10500D01*
X78986Y10211D01*
X78944Y9925D01*
X78876Y9645D01*
X78780Y9372D01*
X78742Y9261D01*
X78725Y9144D01*
X78725Y9026D01*
X78745Y8909D01*
X78782Y8797D01*
X78836Y8693D01*
X78906Y8598D01*
X78991Y8515D01*
X79087Y8446D01*
X79192Y8393D01*
X79305Y8357D01*
X79421Y8340D01*
X79539Y8341D01*
X79613Y8353D01*
Y0D01*
G37*
G36*
X78613Y160000D02*X79613D01*
Y44870D01*
X79465Y44931D01*
X79235Y44986D01*
X79000Y45000D01*
X78613Y44999D01*
Y97853D01*
X78656Y97860D01*
X78768Y97897D01*
X78873Y97952D01*
X78968Y98022D01*
X79051Y98106D01*
X79119Y98202D01*
X79170Y98308D01*
X79318Y98716D01*
X79422Y99137D01*
X79484Y99567D01*
X79505Y100000D01*
X79484Y100433D01*
X79422Y100863D01*
X79318Y101284D01*
X79175Y101694D01*
X79122Y101800D01*
X79053Y101896D01*
X78970Y101981D01*
X78875Y102051D01*
X78769Y102106D01*
X78657Y102143D01*
X78613Y102151D01*
Y107302D01*
X78652Y107347D01*
X79022Y107951D01*
X79293Y108605D01*
X79458Y109294D01*
X79500Y110000D01*
X79458Y110706D01*
X79293Y111395D01*
X79022Y112049D01*
X78652Y112653D01*
X78613Y112698D01*
Y117302D01*
X78652Y117347D01*
X79022Y117951D01*
X79293Y118605D01*
X79458Y119294D01*
X79500Y120000D01*
X79458Y120706D01*
X79293Y121395D01*
X79022Y122049D01*
X78652Y122653D01*
X78613Y122698D01*
Y125630D01*
X78683Y125659D01*
X78884Y125783D01*
X79064Y125936D01*
X79217Y126116D01*
X79341Y126317D01*
X79431Y126535D01*
X79486Y126765D01*
X79500Y127000D01*
X79486Y133235D01*
X79431Y133465D01*
X79341Y133683D01*
X79217Y133884D01*
X79064Y134064D01*
X78884Y134217D01*
X78683Y134341D01*
X78613Y134370D01*
Y160000D01*
G37*
G36*
Y122698D02*X78192Y123192D01*
X77653Y123652D01*
X77049Y124022D01*
X76395Y124293D01*
X75706Y124458D01*
X75000Y124514D01*
X74993Y124513D01*
Y125507D01*
X78235Y125514D01*
X78465Y125569D01*
X78613Y125630D01*
Y122698D01*
G37*
G36*
Y112698D02*X78192Y113192D01*
X77653Y113652D01*
X77049Y114022D01*
X76395Y114293D01*
X75706Y114458D01*
X75000Y114514D01*
X74993Y114513D01*
Y115487D01*
X75000Y115486D01*
X75706Y115542D01*
X76395Y115707D01*
X77049Y115978D01*
X77653Y116348D01*
X78192Y116808D01*
X78613Y117302D01*
Y112698D01*
G37*
G36*
Y44999D02*X74993Y44991D01*
Y50722D01*
X75083Y50759D01*
X75284Y50883D01*
X75464Y51036D01*
X75617Y51216D01*
X75741Y51417D01*
X75831Y51635D01*
X75886Y51865D01*
X75900Y52100D01*
X75886Y59135D01*
X75831Y59365D01*
X75741Y59583D01*
X75617Y59784D01*
X75464Y59964D01*
X75284Y60117D01*
X75083Y60241D01*
X74993Y60278D01*
Y76614D01*
X75135Y76614D01*
X75365Y76669D01*
X75583Y76759D01*
X75784Y76883D01*
X75964Y77036D01*
X76117Y77216D01*
X76241Y77417D01*
X76331Y77635D01*
X76386Y77865D01*
X76400Y78100D01*
X76386Y85135D01*
X76331Y85365D01*
X76241Y85583D01*
X76117Y85784D01*
X75964Y85964D01*
X75784Y86117D01*
X75583Y86241D01*
X75365Y86331D01*
X75135Y86386D01*
X74993Y86395D01*
Y95495D01*
X75000Y95495D01*
X75433Y95516D01*
X75863Y95578D01*
X76284Y95682D01*
X76694Y95825D01*
X76800Y95878D01*
X76896Y95947D01*
X76981Y96030D01*
X77051Y96125D01*
X77106Y96231D01*
X77143Y96343D01*
X77163Y96460D01*
X77164Y96579D01*
X77146Y96696D01*
X77110Y96809D01*
X77057Y96915D01*
X76988Y97012D01*
X76905Y97096D01*
X76809Y97167D01*
X76704Y97221D01*
X76592Y97259D01*
X76475Y97278D01*
X76356Y97279D01*
X76239Y97261D01*
X76126Y97223D01*
X75855Y97124D01*
X75575Y97056D01*
X75289Y97014D01*
X75000Y97000D01*
X74993Y97000D01*
Y103000D01*
X75000Y103000D01*
X75289Y102986D01*
X75575Y102944D01*
X75855Y102876D01*
X76128Y102780D01*
X76239Y102742D01*
X76356Y102725D01*
X76474Y102725D01*
X76591Y102745D01*
X76703Y102782D01*
X76807Y102836D01*
X76902Y102906D01*
X76985Y102991D01*
X77054Y103087D01*
X77107Y103192D01*
X77143Y103305D01*
X77160Y103421D01*
X77159Y103539D01*
X77140Y103656D01*
X77103Y103768D01*
X77048Y103873D01*
X76978Y103968D01*
X76894Y104051D01*
X76798Y104119D01*
X76692Y104170D01*
X76284Y104318D01*
X75863Y104422D01*
X75433Y104484D01*
X75000Y104505D01*
X74993Y104505D01*
Y105487D01*
X75000Y105486D01*
X75706Y105542D01*
X76395Y105707D01*
X77049Y105978D01*
X77653Y106348D01*
X78192Y106808D01*
X78613Y107302D01*
Y102151D01*
X78540Y102163D01*
X78421Y102164D01*
X78304Y102146D01*
X78191Y102110D01*
X78085Y102057D01*
X77988Y101988D01*
X77904Y101905D01*
X77833Y101809D01*
X77779Y101704D01*
X77741Y101592D01*
X77722Y101475D01*
X77721Y101356D01*
X77739Y101239D01*
X77777Y101126D01*
X77876Y100855D01*
X77944Y100575D01*
X77986Y100289D01*
X78000Y100000D01*
X77986Y99711D01*
X77944Y99425D01*
X77876Y99145D01*
X77780Y98872D01*
X77742Y98761D01*
X77725Y98644D01*
X77725Y98526D01*
X77745Y98409D01*
X77782Y98297D01*
X77836Y98193D01*
X77906Y98098D01*
X77991Y98015D01*
X78087Y97946D01*
X78192Y97893D01*
X78305Y97857D01*
X78421Y97840D01*
X78539Y97841D01*
X78613Y97853D01*
Y44999D01*
G37*
G36*
X74993Y160000D02*X78613D01*
Y134370D01*
X78465Y134431D01*
X78235Y134486D01*
X78000Y134500D01*
X74993Y134493D01*
Y143043D01*
X75175Y143481D01*
X75355Y144231D01*
X75400Y145000D01*
X75355Y145769D01*
X75175Y146519D01*
X74993Y146957D01*
Y160000D01*
G37*
G36*
X72387Y17802D02*X72808Y17308D01*
X73347Y16848D01*
X73951Y16478D01*
X74605Y16207D01*
X74993Y16114D01*
Y14886D01*
X74716Y14818D01*
X74306Y14675D01*
X74200Y14622D01*
X74104Y14553D01*
X74019Y14470D01*
X73949Y14375D01*
X73894Y14269D01*
X73857Y14157D01*
X73837Y14040D01*
X73836Y13921D01*
X73854Y13804D01*
X73890Y13691D01*
X73943Y13585D01*
X74012Y13488D01*
X74095Y13404D01*
X74191Y13333D01*
X74296Y13279D01*
X74408Y13241D01*
X74525Y13222D01*
X74644Y13221D01*
X74761Y13239D01*
X74874Y13277D01*
X74993Y13320D01*
Y7678D01*
X74872Y7720D01*
X74761Y7758D01*
X74644Y7775D01*
X74526Y7775D01*
X74409Y7755D01*
X74297Y7718D01*
X74193Y7664D01*
X74098Y7594D01*
X74015Y7509D01*
X73946Y7413D01*
X73893Y7308D01*
X73857Y7195D01*
X73840Y7079D01*
X73841Y6961D01*
X73860Y6844D01*
X73897Y6732D01*
X73952Y6627D01*
X74022Y6532D01*
X74106Y6449D01*
X74202Y6381D01*
X74308Y6330D01*
X74716Y6182D01*
X74993Y6114D01*
Y0D01*
X72387D01*
Y8349D01*
X72460Y8337D01*
X72579Y8336D01*
X72696Y8354D01*
X72809Y8390D01*
X72915Y8443D01*
X73012Y8512D01*
X73096Y8595D01*
X73167Y8691D01*
X73221Y8796D01*
X73259Y8908D01*
X73278Y9025D01*
X73279Y9144D01*
X73261Y9261D01*
X73223Y9374D01*
X73124Y9645D01*
X73056Y9925D01*
X73014Y10211D01*
X73000Y10500D01*
X73014Y10789D01*
X73056Y11075D01*
X73124Y11355D01*
X73220Y11628D01*
X73258Y11739D01*
X73275Y11856D01*
X73275Y11974D01*
X73255Y12091D01*
X73218Y12203D01*
X73164Y12307D01*
X73094Y12402D01*
X73009Y12485D01*
X72913Y12554D01*
X72808Y12607D01*
X72695Y12643D01*
X72579Y12660D01*
X72461Y12659D01*
X72387Y12647D01*
Y17802D01*
G37*
G36*
Y27802D02*X72808Y27308D01*
X73347Y26848D01*
X73951Y26478D01*
X74605Y26207D01*
X74993Y26114D01*
Y24886D01*
X74605Y24793D01*
X73951Y24522D01*
X73347Y24152D01*
X72808Y23692D01*
X72387Y23198D01*
Y27802D01*
G37*
G36*
Y36130D02*X72535Y36069D01*
X72765Y36014D01*
X73000Y36000D01*
X74993Y36004D01*
Y34886D01*
X74605Y34793D01*
X73951Y34522D01*
X73347Y34152D01*
X72808Y33692D01*
X72387Y33198D01*
Y36130D01*
G37*
G36*
Y50609D02*X74635Y50614D01*
X74865Y50669D01*
X74993Y50722D01*
Y44991D01*
X72765Y44986D01*
X72535Y44931D01*
X72387Y44870D01*
Y50609D01*
G37*
G36*
Y76608D02*X74993Y76614D01*
Y60278D01*
X74865Y60331D01*
X74635Y60386D01*
X74400Y60400D01*
X72387Y60396D01*
Y76608D01*
G37*
G36*
Y106324D02*X72951Y105978D01*
X73605Y105707D01*
X74294Y105542D01*
X74993Y105487D01*
Y104505D01*
X74567Y104484D01*
X74137Y104422D01*
X73716Y104318D01*
X73306Y104175D01*
X73200Y104122D01*
X73104Y104053D01*
X73019Y103970D01*
X72949Y103875D01*
X72894Y103769D01*
X72857Y103657D01*
X72837Y103540D01*
X72836Y103421D01*
X72854Y103304D01*
X72890Y103191D01*
X72943Y103085D01*
X73012Y102988D01*
X73095Y102904D01*
X73191Y102833D01*
X73296Y102779D01*
X73408Y102741D01*
X73525Y102722D01*
X73644Y102721D01*
X73761Y102739D01*
X73874Y102777D01*
X74145Y102876D01*
X74425Y102944D01*
X74711Y102986D01*
X74993Y103000D01*
Y97000D01*
X74711Y97014D01*
X74425Y97056D01*
X74145Y97124D01*
X73872Y97220D01*
X73761Y97258D01*
X73644Y97275D01*
X73526Y97275D01*
X73409Y97255D01*
X73297Y97218D01*
X73193Y97164D01*
X73098Y97094D01*
X73015Y97009D01*
X72946Y96913D01*
X72893Y96808D01*
X72857Y96695D01*
X72840Y96579D01*
X72841Y96461D01*
X72860Y96344D01*
X72897Y96232D01*
X72952Y96127D01*
X73022Y96032D01*
X73106Y95949D01*
X73202Y95881D01*
X73308Y95830D01*
X73716Y95682D01*
X74137Y95578D01*
X74567Y95516D01*
X74993Y95495D01*
Y86395D01*
X74900Y86400D01*
X72387Y86395D01*
Y106324D01*
G37*
G36*
Y116324D02*X72951Y115978D01*
X73605Y115707D01*
X74294Y115542D01*
X74993Y115487D01*
Y114513D01*
X74294Y114458D01*
X73605Y114293D01*
X72951Y114022D01*
X72387Y113676D01*
Y116324D01*
G37*
G36*
Y125501D02*X74993Y125507D01*
Y124513D01*
X74294Y124458D01*
X73605Y124293D01*
X72951Y124022D01*
X72387Y123676D01*
Y125501D01*
G37*
G36*
Y140478D02*X72731Y140621D01*
X73389Y141024D01*
X73976Y141524D01*
X74476Y142111D01*
X74879Y142769D01*
X74993Y143043D01*
Y134493D01*
X72387Y134487D01*
Y140478D01*
G37*
G36*
Y160000D02*X74993D01*
Y146957D01*
X74879Y147231D01*
X74476Y147889D01*
X73976Y148476D01*
X73389Y148976D01*
X72731Y149379D01*
X72387Y149522D01*
Y160000D01*
G37*
G36*
X71387Y50607D02*X72387Y50609D01*
Y44870D01*
X72317Y44841D01*
X72116Y44717D01*
X71936Y44564D01*
X71783Y44384D01*
X71659Y44183D01*
X71569Y43965D01*
X71514Y43735D01*
X71500Y43500D01*
X71514Y37265D01*
X71569Y37035D01*
X71659Y36817D01*
X71783Y36616D01*
X71936Y36436D01*
X72116Y36283D01*
X72317Y36159D01*
X72387Y36130D01*
Y33198D01*
X72348Y33153D01*
X71978Y32549D01*
X71707Y31895D01*
X71542Y31206D01*
X71486Y30500D01*
X71542Y29794D01*
X71707Y29105D01*
X71978Y28451D01*
X72348Y27847D01*
X72387Y27802D01*
Y23198D01*
X72348Y23153D01*
X71978Y22549D01*
X71707Y21895D01*
X71542Y21206D01*
X71486Y20500D01*
X71542Y19794D01*
X71707Y19105D01*
X71978Y18451D01*
X72348Y17847D01*
X72387Y17802D01*
Y12647D01*
X72344Y12640D01*
X72232Y12603D01*
X72127Y12548D01*
X72032Y12478D01*
X71949Y12394D01*
X71881Y12298D01*
X71830Y12192D01*
X71682Y11784D01*
X71578Y11363D01*
X71516Y10933D01*
X71495Y10500D01*
X71516Y10067D01*
X71578Y9637D01*
X71682Y9216D01*
X71825Y8806D01*
X71878Y8700D01*
X71947Y8604D01*
X72030Y8519D01*
X72125Y8449D01*
X72231Y8394D01*
X72343Y8357D01*
X72387Y8349D01*
Y0D01*
X71387D01*
Y50607D01*
G37*
G36*
Y76606D02*X72387Y76608D01*
Y60396D01*
X71387Y60394D01*
Y76606D01*
G37*
G36*
Y107302D02*X71808Y106808D01*
X72347Y106348D01*
X72387Y106324D01*
Y86395D01*
X71387Y86393D01*
Y97849D01*
X71460Y97837D01*
X71579Y97836D01*
X71696Y97854D01*
X71809Y97890D01*
X71915Y97943D01*
X72012Y98012D01*
X72096Y98095D01*
X72167Y98191D01*
X72221Y98296D01*
X72259Y98408D01*
X72278Y98525D01*
X72279Y98644D01*
X72261Y98761D01*
X72223Y98874D01*
X72124Y99145D01*
X72056Y99425D01*
X72014Y99711D01*
X72000Y100000D01*
X72014Y100289D01*
X72056Y100575D01*
X72124Y100855D01*
X72220Y101128D01*
X72258Y101239D01*
X72275Y101356D01*
X72275Y101474D01*
X72255Y101591D01*
X72218Y101703D01*
X72164Y101807D01*
X72094Y101902D01*
X72009Y101985D01*
X71913Y102054D01*
X71808Y102107D01*
X71695Y102143D01*
X71579Y102160D01*
X71461Y102159D01*
X71387Y102147D01*
Y107302D01*
G37*
G36*
Y117302D02*X71808Y116808D01*
X72347Y116348D01*
X72387Y116324D01*
Y113676D01*
X72347Y113652D01*
X71808Y113192D01*
X71387Y112698D01*
Y117302D01*
G37*
G36*
Y125630D02*X71535Y125569D01*
X71765Y125514D01*
X72000Y125500D01*
X72387Y125501D01*
Y123676D01*
X72347Y123652D01*
X71808Y123192D01*
X71387Y122698D01*
Y125630D01*
G37*
G36*
Y140174D02*X72019Y140325D01*
X72387Y140478D01*
Y134487D01*
X71765Y134486D01*
X71535Y134431D01*
X71387Y134370D01*
Y140174D01*
G37*
G36*
Y160000D02*X72387D01*
Y149522D01*
X72019Y149675D01*
X71387Y149826D01*
Y160000D01*
G37*
G36*
X62113D02*X71387D01*
Y149826D01*
X71269Y149855D01*
X70500Y149915D01*
X69731Y149855D01*
X68981Y149675D01*
X68269Y149379D01*
X67611Y148976D01*
X67024Y148476D01*
X66524Y147889D01*
X66121Y147231D01*
X65825Y146519D01*
X65645Y145769D01*
X65585Y145000D01*
X65645Y144231D01*
X65825Y143481D01*
X66121Y142769D01*
X66524Y142111D01*
X67024Y141524D01*
X67611Y141024D01*
X68269Y140621D01*
X68981Y140325D01*
X69731Y140145D01*
X70500Y140085D01*
X71269Y140145D01*
X71387Y140174D01*
Y134370D01*
X71317Y134341D01*
X71116Y134217D01*
X70936Y134064D01*
X70783Y133884D01*
X70659Y133683D01*
X70569Y133465D01*
X70514Y133235D01*
X70500Y133000D01*
X70514Y126765D01*
X70569Y126535D01*
X70659Y126317D01*
X70783Y126116D01*
X70936Y125936D01*
X71116Y125783D01*
X71317Y125659D01*
X71387Y125630D01*
Y122698D01*
X71348Y122653D01*
X70978Y122049D01*
X70707Y121395D01*
X70542Y120706D01*
X70486Y120000D01*
X70542Y119294D01*
X70707Y118605D01*
X70978Y117951D01*
X71348Y117347D01*
X71387Y117302D01*
Y112698D01*
X71348Y112653D01*
X70978Y112049D01*
X70707Y111395D01*
X70542Y110706D01*
X70486Y110000D01*
X70542Y109294D01*
X70707Y108605D01*
X70978Y107951D01*
X71348Y107347D01*
X71387Y107302D01*
Y102147D01*
X71344Y102140D01*
X71232Y102103D01*
X71127Y102048D01*
X71032Y101978D01*
X70949Y101894D01*
X70881Y101798D01*
X70830Y101692D01*
X70682Y101284D01*
X70578Y100863D01*
X70516Y100433D01*
X70495Y100000D01*
X70516Y99567D01*
X70578Y99137D01*
X70682Y98716D01*
X70825Y98306D01*
X70878Y98200D01*
X70947Y98104D01*
X71030Y98019D01*
X71125Y97949D01*
X71231Y97894D01*
X71343Y97857D01*
X71387Y97849D01*
Y86393D01*
X67865Y86386D01*
X67635Y86331D01*
X67417Y86241D01*
X67216Y86117D01*
X67036Y85964D01*
X66883Y85784D01*
X66759Y85583D01*
X66669Y85365D01*
X66614Y85135D01*
X66600Y84900D01*
X66614Y77865D01*
X66669Y77635D01*
X66759Y77417D01*
X66883Y77216D01*
X67036Y77036D01*
X67216Y76883D01*
X67417Y76759D01*
X67635Y76669D01*
X67865Y76614D01*
X68100Y76600D01*
X71387Y76606D01*
Y60394D01*
X67365Y60386D01*
X67135Y60331D01*
X66917Y60241D01*
X66716Y60117D01*
X66536Y59964D01*
X66383Y59784D01*
X66259Y59583D01*
X66169Y59365D01*
X66114Y59135D01*
X66100Y58900D01*
X66114Y51865D01*
X66169Y51635D01*
X66259Y51417D01*
X66383Y51216D01*
X66536Y51036D01*
X66716Y50883D01*
X66917Y50759D01*
X67135Y50669D01*
X67365Y50614D01*
X67600Y50600D01*
X71387Y50607D01*
Y0D01*
X62113D01*
Y68353D01*
X62156Y68360D01*
X62268Y68397D01*
X62373Y68452D01*
X62468Y68522D01*
X62551Y68606D01*
X62619Y68702D01*
X62670Y68808D01*
X62818Y69216D01*
X62922Y69637D01*
X62984Y70067D01*
X63005Y70500D01*
X62984Y70933D01*
X62922Y71363D01*
X62818Y71784D01*
X62675Y72194D01*
X62622Y72300D01*
X62553Y72396D01*
X62470Y72481D01*
X62375Y72551D01*
X62269Y72606D01*
X62157Y72643D01*
X62113Y72651D01*
Y145737D01*
X62448Y145942D01*
X63046Y146454D01*
X63558Y147052D01*
X63969Y147723D01*
X64270Y148450D01*
X64454Y149215D01*
X64500Y150000D01*
X64454Y150785D01*
X64270Y151550D01*
X63969Y152277D01*
X63558Y152948D01*
X63046Y153546D01*
X62448Y154058D01*
X62113Y154263D01*
Y160000D01*
G37*
G36*
Y0D02*X59493D01*
Y66110D01*
X59784Y66182D01*
X60194Y66325D01*
X60300Y66378D01*
X60396Y66447D01*
X60481Y66530D01*
X60551Y66625D01*
X60606Y66731D01*
X60643Y66843D01*
X60663Y66960D01*
X60664Y67079D01*
X60646Y67196D01*
X60610Y67309D01*
X60557Y67415D01*
X60488Y67512D01*
X60405Y67596D01*
X60309Y67667D01*
X60204Y67721D01*
X60092Y67759D01*
X59975Y67778D01*
X59856Y67779D01*
X59739Y67761D01*
X59626Y67723D01*
X59493Y67675D01*
Y73327D01*
X59628Y73280D01*
X59739Y73242D01*
X59856Y73225D01*
X59974Y73225D01*
X60091Y73245D01*
X60203Y73282D01*
X60307Y73336D01*
X60402Y73406D01*
X60485Y73491D01*
X60554Y73587D01*
X60607Y73692D01*
X60643Y73805D01*
X60660Y73921D01*
X60659Y74039D01*
X60640Y74156D01*
X60603Y74268D01*
X60548Y74373D01*
X60478Y74468D01*
X60394Y74551D01*
X60298Y74619D01*
X60192Y74670D01*
X59784Y74818D01*
X59493Y74890D01*
Y87145D01*
X59578Y87181D01*
X59679Y87243D01*
X59769Y87319D01*
X59845Y87409D01*
X59905Y87511D01*
X60122Y87980D01*
X60289Y88469D01*
X60409Y88972D01*
X60482Y89484D01*
X60506Y90000D01*
X60482Y90516D01*
X60409Y91028D01*
X60289Y91531D01*
X60122Y92020D01*
X59910Y92492D01*
X59849Y92593D01*
X59772Y92684D01*
X59682Y92761D01*
X59580Y92823D01*
X59493Y92860D01*
Y106805D01*
X59916Y107495D01*
X60247Y108295D01*
X60449Y109137D01*
X60500Y110000D01*
X60449Y110863D01*
X60247Y111705D01*
X59916Y112505D01*
X59493Y113195D01*
Y144985D01*
X59500Y144985D01*
X60285Y145046D01*
X61050Y145230D01*
X61777Y145531D01*
X62113Y145737D01*
Y72651D01*
X62040Y72663D01*
X61921Y72664D01*
X61804Y72646D01*
X61691Y72610D01*
X61585Y72557D01*
X61488Y72488D01*
X61404Y72405D01*
X61333Y72309D01*
X61279Y72204D01*
X61241Y72092D01*
X61222Y71975D01*
X61221Y71856D01*
X61239Y71739D01*
X61277Y71626D01*
X61376Y71355D01*
X61444Y71075D01*
X61486Y70789D01*
X61500Y70500D01*
X61486Y70211D01*
X61444Y69925D01*
X61376Y69645D01*
X61280Y69372D01*
X61242Y69261D01*
X61225Y69144D01*
X61225Y69026D01*
X61245Y68909D01*
X61282Y68797D01*
X61336Y68693D01*
X61406Y68598D01*
X61491Y68515D01*
X61587Y68446D01*
X61692Y68393D01*
X61805Y68357D01*
X61921Y68340D01*
X62039Y68341D01*
X62113Y68353D01*
Y0D01*
G37*
G36*
X59493Y160000D02*X62113D01*
Y154263D01*
X61777Y154469D01*
X61050Y154770D01*
X60285Y154954D01*
X59500Y155015D01*
X59493Y155015D01*
Y160000D01*
G37*
G36*
Y113195D02*X59463Y113243D01*
X58901Y113901D01*
X58243Y114463D01*
X57505Y114916D01*
X56705Y115247D01*
X55863Y115449D01*
X55000Y115517D01*
X54992Y115516D01*
Y147819D01*
X55031Y147723D01*
X55442Y147052D01*
X55954Y146454D01*
X56552Y145942D01*
X57223Y145531D01*
X57950Y145230D01*
X58715Y145046D01*
X59493Y144985D01*
Y113195D01*
G37*
G36*
Y0D02*X54992D01*
Y68337D01*
X55079Y68336D01*
X55196Y68354D01*
X55309Y68390D01*
X55415Y68443D01*
X55512Y68512D01*
X55596Y68595D01*
X55667Y68691D01*
X55721Y68796D01*
X55759Y68908D01*
X55778Y69025D01*
X55779Y69144D01*
X55761Y69261D01*
X55723Y69374D01*
X55624Y69645D01*
X55556Y69925D01*
X55514Y70211D01*
X55500Y70500D01*
X55514Y70789D01*
X55556Y71075D01*
X55624Y71355D01*
X55720Y71628D01*
X55758Y71739D01*
X55775Y71856D01*
X55775Y71974D01*
X55755Y72091D01*
X55718Y72203D01*
X55664Y72307D01*
X55594Y72402D01*
X55509Y72485D01*
X55413Y72554D01*
X55308Y72607D01*
X55195Y72643D01*
X55079Y72660D01*
X54992Y72659D01*
Y84494D01*
X55000Y84494D01*
X55516Y84518D01*
X56028Y84591D01*
X56531Y84711D01*
X57020Y84878D01*
X57492Y85090D01*
X57593Y85151D01*
X57684Y85228D01*
X57761Y85318D01*
X57823Y85420D01*
X57869Y85529D01*
X57897Y85645D01*
X57906Y85763D01*
X57897Y85881D01*
X57870Y85997D01*
X57824Y86107D01*
X57762Y86208D01*
X57686Y86298D01*
X57595Y86376D01*
X57494Y86438D01*
X57385Y86484D01*
X57269Y86511D01*
X57151Y86521D01*
X57032Y86512D01*
X56917Y86484D01*
X56808Y86437D01*
X56468Y86279D01*
X56112Y86158D01*
X55747Y86070D01*
X55375Y86018D01*
X55000Y86000D01*
X54992Y86000D01*
Y94000D01*
X55000Y94000D01*
X55375Y93982D01*
X55747Y93930D01*
X56112Y93842D01*
X56468Y93721D01*
X56810Y93567D01*
X56918Y93520D01*
X57033Y93493D01*
X57151Y93483D01*
X57268Y93493D01*
X57383Y93521D01*
X57492Y93566D01*
X57593Y93628D01*
X57682Y93705D01*
X57759Y93795D01*
X57820Y93895D01*
X57865Y94004D01*
X57893Y94119D01*
X57902Y94237D01*
X57892Y94355D01*
X57865Y94469D01*
X57819Y94578D01*
X57757Y94679D01*
X57681Y94769D01*
X57591Y94845D01*
X57489Y94905D01*
X57020Y95122D01*
X56531Y95289D01*
X56028Y95409D01*
X55516Y95482D01*
X55000Y95506D01*
X54992Y95506D01*
Y104484D01*
X55000Y104483D01*
X55863Y104551D01*
X56705Y104753D01*
X57505Y105084D01*
X58243Y105537D01*
X58901Y106099D01*
X59463Y106757D01*
X59493Y106805D01*
Y92860D01*
X59471Y92869D01*
X59355Y92897D01*
X59237Y92906D01*
X59119Y92897D01*
X59003Y92870D01*
X58893Y92824D01*
X58792Y92762D01*
X58702Y92686D01*
X58624Y92595D01*
X58562Y92494D01*
X58516Y92385D01*
X58489Y92269D01*
X58479Y92151D01*
X58488Y92032D01*
X58516Y91917D01*
X58563Y91808D01*
X58721Y91468D01*
X58842Y91112D01*
X58930Y90747D01*
X58982Y90375D01*
X59000Y90000D01*
X58982Y89625D01*
X58930Y89253D01*
X58842Y88888D01*
X58721Y88532D01*
X58567Y88190D01*
X58520Y88082D01*
X58493Y87967D01*
X58483Y87849D01*
X58493Y87732D01*
X58521Y87617D01*
X58566Y87508D01*
X58628Y87407D01*
X58705Y87318D01*
X58795Y87241D01*
X58895Y87180D01*
X59004Y87135D01*
X59119Y87107D01*
X59237Y87098D01*
X59355Y87108D01*
X59469Y87135D01*
X59493Y87145D01*
Y74890D01*
X59363Y74922D01*
X58933Y74984D01*
X58500Y75005D01*
X58067Y74984D01*
X57637Y74922D01*
X57216Y74818D01*
X56806Y74675D01*
X56700Y74622D01*
X56604Y74553D01*
X56519Y74470D01*
X56449Y74375D01*
X56394Y74269D01*
X56357Y74157D01*
X56337Y74040D01*
X56336Y73921D01*
X56354Y73804D01*
X56390Y73691D01*
X56443Y73585D01*
X56512Y73488D01*
X56595Y73404D01*
X56691Y73333D01*
X56796Y73279D01*
X56908Y73241D01*
X57025Y73222D01*
X57144Y73221D01*
X57261Y73239D01*
X57374Y73277D01*
X57645Y73376D01*
X57925Y73444D01*
X58211Y73486D01*
X58500Y73500D01*
X58789Y73486D01*
X59075Y73444D01*
X59355Y73376D01*
X59493Y73327D01*
Y67675D01*
X59355Y67624D01*
X59075Y67556D01*
X58789Y67514D01*
X58500Y67500D01*
X58211Y67514D01*
X57925Y67556D01*
X57645Y67624D01*
X57372Y67720D01*
X57261Y67758D01*
X57144Y67775D01*
X57026Y67775D01*
X56909Y67755D01*
X56797Y67718D01*
X56693Y67664D01*
X56598Y67594D01*
X56515Y67509D01*
X56446Y67413D01*
X56393Y67308D01*
X56357Y67195D01*
X56340Y67079D01*
X56341Y66961D01*
X56360Y66844D01*
X56397Y66732D01*
X56452Y66627D01*
X56522Y66532D01*
X56606Y66449D01*
X56702Y66381D01*
X56808Y66330D01*
X57216Y66182D01*
X57637Y66078D01*
X58067Y66016D01*
X58500Y65995D01*
X58933Y66016D01*
X59363Y66078D01*
X59493Y66110D01*
Y0D01*
G37*
G36*
X54992Y160000D02*X59493D01*
Y155015D01*
X58715Y154954D01*
X57950Y154770D01*
X57223Y154469D01*
X56552Y154058D01*
X55954Y153546D01*
X55442Y152948D01*
X55031Y152277D01*
X54992Y152181D01*
Y160000D01*
G37*
G36*
X50507Y106805D02*X50537Y106757D01*
X51099Y106099D01*
X51757Y105537D01*
X52495Y105084D01*
X53295Y104753D01*
X54137Y104551D01*
X54992Y104484D01*
Y95506D01*
X54484Y95482D01*
X53972Y95409D01*
X53469Y95289D01*
X52980Y95122D01*
X52508Y94910D01*
X52407Y94849D01*
X52316Y94772D01*
X52239Y94682D01*
X52177Y94580D01*
X52131Y94471D01*
X52103Y94355D01*
X52094Y94237D01*
X52103Y94119D01*
X52130Y94003D01*
X52176Y93893D01*
X52238Y93792D01*
X52314Y93702D01*
X52405Y93624D01*
X52506Y93562D01*
X52615Y93516D01*
X52731Y93489D01*
X52849Y93479D01*
X52968Y93488D01*
X53083Y93516D01*
X53192Y93563D01*
X53532Y93721D01*
X53888Y93842D01*
X54253Y93930D01*
X54625Y93982D01*
X54992Y94000D01*
Y86000D01*
X54625Y86018D01*
X54253Y86070D01*
X53888Y86158D01*
X53532Y86279D01*
X53190Y86433D01*
X53082Y86480D01*
X52967Y86507D01*
X52849Y86517D01*
X52732Y86507D01*
X52617Y86479D01*
X52508Y86434D01*
X52407Y86372D01*
X52318Y86295D01*
X52241Y86205D01*
X52180Y86105D01*
X52135Y85996D01*
X52107Y85881D01*
X52098Y85763D01*
X52108Y85645D01*
X52135Y85531D01*
X52181Y85422D01*
X52243Y85321D01*
X52319Y85231D01*
X52409Y85155D01*
X52511Y85095D01*
X52980Y84878D01*
X53469Y84711D01*
X53972Y84591D01*
X54484Y84518D01*
X54992Y84494D01*
Y72659D01*
X54961Y72659D01*
X54844Y72640D01*
X54732Y72603D01*
X54627Y72548D01*
X54532Y72478D01*
X54449Y72394D01*
X54381Y72298D01*
X54330Y72192D01*
X54182Y71784D01*
X54078Y71363D01*
X54016Y70933D01*
X53995Y70500D01*
X54016Y70067D01*
X54078Y69637D01*
X54182Y69216D01*
X54325Y68806D01*
X54378Y68700D01*
X54447Y68604D01*
X54530Y68519D01*
X54625Y68449D01*
X54731Y68394D01*
X54843Y68357D01*
X54960Y68337D01*
X54992Y68337D01*
Y0D01*
X50507D01*
Y66011D01*
X51735Y66014D01*
X51965Y66069D01*
X52183Y66159D01*
X52384Y66283D01*
X52564Y66436D01*
X52717Y66616D01*
X52841Y66817D01*
X52931Y67035D01*
X52986Y67265D01*
X53000Y67500D01*
X52986Y73735D01*
X52931Y73965D01*
X52841Y74183D01*
X52717Y74384D01*
X52564Y74564D01*
X52384Y74717D01*
X52183Y74841D01*
X51965Y74931D01*
X51735Y74986D01*
X51500Y75000D01*
X50507Y74998D01*
Y87140D01*
X50529Y87131D01*
X50645Y87103D01*
X50763Y87094D01*
X50881Y87103D01*
X50997Y87130D01*
X51107Y87176D01*
X51208Y87238D01*
X51298Y87314D01*
X51376Y87405D01*
X51438Y87506D01*
X51484Y87615D01*
X51511Y87731D01*
X51521Y87849D01*
X51512Y87968D01*
X51484Y88083D01*
X51437Y88192D01*
X51279Y88532D01*
X51158Y88888D01*
X51070Y89253D01*
X51018Y89625D01*
X51000Y90000D01*
X51018Y90375D01*
X51070Y90747D01*
X51158Y91112D01*
X51279Y91468D01*
X51433Y91810D01*
X51480Y91918D01*
X51507Y92033D01*
X51517Y92151D01*
X51507Y92268D01*
X51479Y92383D01*
X51434Y92492D01*
X51372Y92593D01*
X51295Y92682D01*
X51205Y92759D01*
X51105Y92820D01*
X50996Y92865D01*
X50881Y92893D01*
X50763Y92902D01*
X50645Y92892D01*
X50531Y92865D01*
X50507Y92855D01*
Y106805D01*
G37*
G36*
Y145009D02*X53235Y145014D01*
X53465Y145069D01*
X53683Y145159D01*
X53884Y145283D01*
X54064Y145436D01*
X54217Y145616D01*
X54341Y145817D01*
X54431Y146035D01*
X54486Y146265D01*
X54500Y146500D01*
X54493Y149887D01*
X54546Y149215D01*
X54730Y148450D01*
X54992Y147819D01*
Y115516D01*
X54137Y115449D01*
X53295Y115247D01*
X52495Y114916D01*
X51757Y114463D01*
X51099Y113901D01*
X50537Y113243D01*
X50507Y113195D01*
Y145009D01*
G37*
G36*
Y160000D02*X54992D01*
Y152181D01*
X54730Y151550D01*
X54546Y150785D01*
X54493Y150108D01*
X54486Y153735D01*
X54431Y153965D01*
X54341Y154183D01*
X54217Y154384D01*
X54064Y154564D01*
X53884Y154717D01*
X53683Y154841D01*
X53465Y154931D01*
X53235Y154986D01*
X53000Y155000D01*
X50507Y154995D01*
Y160000D01*
G37*
G36*
X38501D02*X50507D01*
Y154995D01*
X45765Y154986D01*
X45535Y154931D01*
X45317Y154841D01*
X45116Y154717D01*
X44936Y154564D01*
X44783Y154384D01*
X44659Y154183D01*
X44569Y153965D01*
X44514Y153735D01*
X44500Y153500D01*
X44514Y146265D01*
X44569Y146035D01*
X44659Y145817D01*
X44783Y145616D01*
X44936Y145436D01*
X45116Y145283D01*
X45317Y145159D01*
X45535Y145069D01*
X45765Y145014D01*
X46000Y145000D01*
X50507Y145009D01*
Y113195D01*
X50084Y112505D01*
X49753Y111705D01*
X49551Y110863D01*
X49483Y110000D01*
X49551Y109137D01*
X49753Y108295D01*
X50084Y107495D01*
X50507Y106805D01*
Y92855D01*
X50422Y92819D01*
X50321Y92757D01*
X50231Y92681D01*
X50155Y92591D01*
X50095Y92489D01*
X49878Y92020D01*
X49711Y91531D01*
X49591Y91028D01*
X49518Y90516D01*
X49494Y90000D01*
X49518Y89484D01*
X49591Y88972D01*
X49711Y88469D01*
X49878Y87980D01*
X50090Y87508D01*
X50151Y87407D01*
X50228Y87316D01*
X50318Y87239D01*
X50420Y87177D01*
X50507Y87140D01*
Y74998D01*
X45265Y74986D01*
X45035Y74931D01*
X44817Y74841D01*
X44616Y74717D01*
X44436Y74564D01*
X44283Y74384D01*
X44159Y74183D01*
X44069Y73965D01*
X44014Y73735D01*
X44000Y73500D01*
X44014Y67265D01*
X44069Y67035D01*
X44159Y66817D01*
X44283Y66616D01*
X44436Y66436D01*
X44616Y66283D01*
X44817Y66159D01*
X45035Y66069D01*
X45265Y66014D01*
X45500Y66000D01*
X50507Y66011D01*
Y0D01*
X38501D01*
Y50515D01*
X38734Y50787D01*
X39112Y51405D01*
X39389Y52074D01*
X39558Y52778D01*
X39601Y53500D01*
X39558Y54222D01*
X39389Y54926D01*
X39112Y55595D01*
X38734Y56213D01*
X38501Y56485D01*
Y64205D01*
X38532Y64222D01*
X38594Y64270D01*
X38648Y64327D01*
X38691Y64393D01*
X38877Y64748D01*
X39025Y65121D01*
X39137Y65506D01*
X39212Y65900D01*
X39250Y66299D01*
Y66701D01*
X39212Y67100D01*
X39137Y67494D01*
X39025Y67879D01*
X38877Y68252D01*
X38695Y68609D01*
X38651Y68675D01*
X38597Y68733D01*
X38534Y68781D01*
X38501Y68800D01*
Y99079D01*
X38798Y99565D01*
X39054Y100183D01*
X39211Y100833D01*
X39250Y101500D01*
X39211Y102167D01*
X39054Y102817D01*
X38798Y103435D01*
X38501Y103921D01*
Y160000D01*
G37*
G36*
Y56485D02*X38263Y56763D01*
X37713Y57234D01*
X37095Y57612D01*
X36426Y57889D01*
X35722Y58058D01*
X35000Y58115D01*
X34993Y58115D01*
Y62250D01*
X35201D01*
X35600Y62288D01*
X35994Y62363D01*
X36379Y62475D01*
X36752Y62623D01*
X37109Y62805D01*
X37175Y62849D01*
X37233Y62903D01*
X37281Y62966D01*
X37320Y63036D01*
X37346Y63110D01*
X37361Y63188D01*
X37364Y63267D01*
X37354Y63346D01*
X37332Y63422D01*
X37298Y63494D01*
X37253Y63559D01*
X37199Y63617D01*
X37136Y63666D01*
X37067Y63704D01*
X36992Y63731D01*
X36914Y63745D01*
X36835Y63748D01*
X36757Y63738D01*
X36680Y63716D01*
X36609Y63681D01*
X36338Y63538D01*
X36053Y63425D01*
X35759Y63340D01*
X35458Y63282D01*
X35153Y63254D01*
X34993D01*
Y69746D01*
X35153D01*
X35458Y69718D01*
X35759Y69660D01*
X36053Y69575D01*
X36338Y69462D01*
X36611Y69322D01*
X36682Y69288D01*
X36757Y69266D01*
X36835Y69256D01*
X36914Y69258D01*
X36991Y69273D01*
X37065Y69300D01*
X37134Y69337D01*
X37197Y69386D01*
X37250Y69443D01*
X37295Y69508D01*
X37328Y69579D01*
X37350Y69655D01*
X37360Y69733D01*
X37358Y69812D01*
X37343Y69889D01*
X37316Y69963D01*
X37278Y70032D01*
X37230Y70094D01*
X37173Y70148D01*
X37107Y70191D01*
X36752Y70377D01*
X36379Y70525D01*
X35994Y70637D01*
X35600Y70712D01*
X35201Y70750D01*
X34993D01*
Y97237D01*
X35000Y97237D01*
X35667Y97289D01*
X36317Y97446D01*
X36935Y97702D01*
X37506Y98051D01*
X38014Y98486D01*
X38449Y98994D01*
X38501Y99079D01*
Y68800D01*
X38464Y68820D01*
X38390Y68846D01*
X38312Y68861D01*
X38233Y68864D01*
X38154Y68854D01*
X38078Y68832D01*
X38006Y68798D01*
X37941Y68753D01*
X37883Y68699D01*
X37834Y68636D01*
X37796Y68567D01*
X37769Y68492D01*
X37755Y68414D01*
X37752Y68335D01*
X37762Y68257D01*
X37784Y68180D01*
X37819Y68109D01*
X37962Y67838D01*
X38075Y67553D01*
X38160Y67259D01*
X38218Y66958D01*
X38246Y66653D01*
Y66347D01*
X38218Y66042D01*
X38160Y65741D01*
X38075Y65447D01*
X37962Y65162D01*
X37822Y64889D01*
X37788Y64818D01*
X37766Y64743D01*
X37756Y64665D01*
X37758Y64586D01*
X37773Y64509D01*
X37800Y64435D01*
X37837Y64366D01*
X37886Y64303D01*
X37943Y64250D01*
X38008Y64205D01*
X38079Y64172D01*
X38155Y64150D01*
X38233Y64140D01*
X38312Y64142D01*
X38389Y64157D01*
X38463Y64184D01*
X38501Y64205D01*
Y56485D01*
G37*
G36*
Y0D02*X34993D01*
Y48885D01*
X35000Y48885D01*
X35722Y48942D01*
X36426Y49111D01*
X37095Y49388D01*
X37713Y49766D01*
X38263Y50237D01*
X38501Y50515D01*
Y0D01*
G37*
G36*
X34993Y160000D02*X38501D01*
Y103921D01*
X38449Y104006D01*
X38014Y104514D01*
X37506Y104949D01*
X36935Y105298D01*
X36317Y105554D01*
X35667Y105711D01*
X35000Y105763D01*
X34993Y105763D01*
Y160000D01*
G37*
G36*
X31499Y50515D02*X31737Y50237D01*
X32287Y49766D01*
X32905Y49388D01*
X33574Y49111D01*
X34278Y48942D01*
X34993Y48885D01*
Y0D01*
X31499D01*
Y50515D01*
G37*
G36*
Y99079D02*X31551Y98994D01*
X31986Y98486D01*
X32494Y98051D01*
X33065Y97702D01*
X33683Y97446D01*
X34333Y97289D01*
X34993Y97237D01*
Y70750D01*
X34799D01*
X34400Y70712D01*
X34006Y70637D01*
X33621Y70525D01*
X33248Y70377D01*
X32891Y70195D01*
X32825Y70151D01*
X32767Y70097D01*
X32719Y70034D01*
X32680Y69964D01*
X32654Y69890D01*
X32639Y69812D01*
X32636Y69733D01*
X32646Y69654D01*
X32668Y69578D01*
X32702Y69506D01*
X32747Y69441D01*
X32801Y69383D01*
X32864Y69334D01*
X32933Y69296D01*
X33008Y69269D01*
X33086Y69255D01*
X33165Y69252D01*
X33243Y69262D01*
X33320Y69284D01*
X33391Y69319D01*
X33662Y69462D01*
X33947Y69575D01*
X34241Y69660D01*
X34542Y69718D01*
X34847Y69746D01*
X34993D01*
Y63254D01*
X34847D01*
X34542Y63282D01*
X34241Y63340D01*
X33947Y63425D01*
X33662Y63538D01*
X33389Y63678D01*
X33318Y63712D01*
X33243Y63734D01*
X33165Y63744D01*
X33086Y63742D01*
X33009Y63727D01*
X32935Y63700D01*
X32866Y63663D01*
X32803Y63614D01*
X32750Y63557D01*
X32705Y63492D01*
X32672Y63421D01*
X32650Y63345D01*
X32640Y63267D01*
X32642Y63188D01*
X32657Y63111D01*
X32684Y63037D01*
X32722Y62968D01*
X32770Y62906D01*
X32827Y62852D01*
X32893Y62809D01*
X33248Y62623D01*
X33621Y62475D01*
X34006Y62363D01*
X34400Y62288D01*
X34799Y62250D01*
X34993D01*
Y58115D01*
X34278Y58058D01*
X33574Y57889D01*
X32905Y57612D01*
X32287Y57234D01*
X31737Y56763D01*
X31499Y56485D01*
Y64200D01*
X31536Y64180D01*
X31610Y64154D01*
X31688Y64139D01*
X31767Y64136D01*
X31846Y64146D01*
X31922Y64168D01*
X31994Y64202D01*
X32059Y64247D01*
X32117Y64301D01*
X32166Y64364D01*
X32204Y64433D01*
X32231Y64508D01*
X32245Y64586D01*
X32248Y64665D01*
X32238Y64743D01*
X32216Y64820D01*
X32181Y64891D01*
X32038Y65162D01*
X31925Y65447D01*
X31840Y65741D01*
X31782Y66042D01*
X31754Y66347D01*
Y66653D01*
X31782Y66958D01*
X31840Y67259D01*
X31925Y67553D01*
X32038Y67838D01*
X32178Y68111D01*
X32212Y68182D01*
X32234Y68257D01*
X32244Y68335D01*
X32242Y68414D01*
X32227Y68491D01*
X32200Y68565D01*
X32163Y68634D01*
X32114Y68697D01*
X32057Y68750D01*
X31992Y68795D01*
X31921Y68828D01*
X31845Y68850D01*
X31767Y68860D01*
X31688Y68858D01*
X31611Y68843D01*
X31537Y68816D01*
X31499Y68795D01*
Y99079D01*
G37*
G36*
Y160000D02*X34993D01*
Y105763D01*
X34333Y105711D01*
X33683Y105554D01*
X33065Y105298D01*
X32494Y104949D01*
X31986Y104514D01*
X31551Y104006D01*
X31499Y103921D01*
Y113562D01*
X31727Y113656D01*
X32331Y114026D01*
X32870Y114486D01*
X33330Y115025D01*
X33700Y115629D01*
X33971Y116283D01*
X34136Y116972D01*
X34178Y117678D01*
X34136Y118384D01*
X33971Y119073D01*
X33700Y119727D01*
X33330Y120331D01*
X32870Y120870D01*
X32331Y121330D01*
X31727Y121700D01*
X31499Y121794D01*
Y160000D01*
G37*
G36*
Y103921D02*X31202Y103435D01*
X30946Y102817D01*
X30789Y102167D01*
X30737Y101500D01*
X30789Y100833D01*
X30946Y100183D01*
X31202Y99565D01*
X31499Y99079D01*
Y68795D01*
X31468Y68778D01*
X31406Y68730D01*
X31352Y68673D01*
X31309Y68607D01*
X31123Y68252D01*
X30975Y67879D01*
X30863Y67494D01*
X30788Y67100D01*
X30750Y66701D01*
Y66299D01*
X30788Y65900D01*
X30863Y65506D01*
X30975Y65121D01*
X31123Y64748D01*
X31305Y64391D01*
X31349Y64325D01*
X31403Y64267D01*
X31466Y64219D01*
X31499Y64200D01*
Y56485D01*
X31266Y56213D01*
X30888Y55595D01*
X30611Y54926D01*
X30442Y54222D01*
X30385Y53500D01*
X30442Y52778D01*
X30611Y52074D01*
X30888Y51405D01*
X31266Y50787D01*
X31499Y50515D01*
Y0D01*
X29671D01*
Y113165D01*
X29678Y113164D01*
X30384Y113220D01*
X31073Y113385D01*
X31499Y113562D01*
Y103921D01*
G37*
G36*
X29671Y160000D02*X31499D01*
Y121794D01*
X31073Y121971D01*
X30384Y122136D01*
X29678Y122192D01*
X29671Y122191D01*
Y160000D01*
G37*
G36*
X19113D02*X29671D01*
Y122191D01*
X28972Y122136D01*
X28283Y121971D01*
X27629Y121700D01*
X27025Y121330D01*
X26486Y120870D01*
X26026Y120331D01*
X25656Y119727D01*
X25385Y119073D01*
X25220Y118384D01*
X25164Y117678D01*
X25220Y116972D01*
X25385Y116283D01*
X25656Y115629D01*
X26026Y115025D01*
X26486Y114486D01*
X27025Y114026D01*
X27629Y113656D01*
X28283Y113385D01*
X28972Y113220D01*
X29671Y113165D01*
Y0D01*
X19113D01*
Y77353D01*
X19156Y77360D01*
X19268Y77397D01*
X19373Y77452D01*
X19468Y77522D01*
X19551Y77606D01*
X19619Y77702D01*
X19670Y77808D01*
X19818Y78216D01*
X19922Y78637D01*
X19984Y79067D01*
X20005Y79500D01*
X19984Y79933D01*
X19922Y80363D01*
X19818Y80784D01*
X19675Y81194D01*
X19622Y81300D01*
X19553Y81396D01*
X19470Y81481D01*
X19375Y81551D01*
X19269Y81606D01*
X19157Y81643D01*
X19113Y81651D01*
Y85130D01*
X19183Y85159D01*
X19384Y85283D01*
X19564Y85436D01*
X19717Y85616D01*
X19841Y85817D01*
X19931Y86035D01*
X19986Y86265D01*
X20000Y86500D01*
X19986Y92735D01*
X19931Y92965D01*
X19841Y93183D01*
X19717Y93384D01*
X19564Y93564D01*
X19384Y93717D01*
X19183Y93841D01*
X19113Y93870D01*
Y127435D01*
X19219Y127479D01*
X19420Y127603D01*
X19600Y127756D01*
X19753Y127936D01*
X19877Y128137D01*
X19967Y128355D01*
X20022Y128585D01*
X20036Y128820D01*
X20022Y135055D01*
X19967Y135285D01*
X19877Y135503D01*
X19753Y135704D01*
X19600Y135884D01*
X19420Y136037D01*
X19219Y136161D01*
X19113Y136205D01*
Y160000D01*
G37*
G36*
Y93870D02*X18965Y93931D01*
X18735Y93986D01*
X18500Y94000D01*
X15536Y93993D01*
Y127327D01*
X18771Y127334D01*
X19001Y127389D01*
X19113Y127435D01*
Y93870D01*
G37*
G36*
Y0D02*X15536D01*
Y6594D01*
X15809Y7040D01*
X16201Y7985D01*
X16440Y8980D01*
X16500Y10000D01*
X16440Y11020D01*
X16201Y12015D01*
X15809Y12960D01*
X15536Y13406D01*
Y74997D01*
X15933Y75016D01*
X16363Y75078D01*
X16784Y75182D01*
X17194Y75325D01*
X17300Y75378D01*
X17396Y75447D01*
X17481Y75530D01*
X17551Y75625D01*
X17606Y75731D01*
X17643Y75843D01*
X17663Y75960D01*
X17664Y76079D01*
X17646Y76196D01*
X17610Y76309D01*
X17557Y76415D01*
X17488Y76512D01*
X17405Y76596D01*
X17309Y76667D01*
X17204Y76721D01*
X17092Y76759D01*
X16975Y76778D01*
X16856Y76779D01*
X16739Y76761D01*
X16626Y76723D01*
X16355Y76624D01*
X16075Y76556D01*
X15789Y76514D01*
X15536Y76502D01*
Y82498D01*
X15789Y82486D01*
X16075Y82444D01*
X16355Y82376D01*
X16628Y82280D01*
X16739Y82242D01*
X16856Y82225D01*
X16974Y82225D01*
X17091Y82245D01*
X17203Y82282D01*
X17307Y82336D01*
X17402Y82406D01*
X17485Y82491D01*
X17554Y82587D01*
X17607Y82692D01*
X17643Y82805D01*
X17660Y82921D01*
X17659Y83039D01*
X17640Y83156D01*
X17603Y83268D01*
X17548Y83373D01*
X17478Y83468D01*
X17394Y83551D01*
X17298Y83619D01*
X17192Y83670D01*
X16784Y83818D01*
X16363Y83922D01*
X15933Y83984D01*
X15536Y84003D01*
Y85007D01*
X18735Y85014D01*
X18965Y85069D01*
X19113Y85130D01*
Y81651D01*
X19040Y81663D01*
X18921Y81664D01*
X18804Y81646D01*
X18691Y81610D01*
X18585Y81557D01*
X18488Y81488D01*
X18404Y81405D01*
X18333Y81309D01*
X18279Y81204D01*
X18241Y81092D01*
X18222Y80975D01*
X18221Y80856D01*
X18239Y80739D01*
X18277Y80626D01*
X18376Y80355D01*
X18444Y80075D01*
X18486Y79789D01*
X18500Y79500D01*
X18486Y79211D01*
X18444Y78925D01*
X18376Y78645D01*
X18280Y78372D01*
X18242Y78261D01*
X18225Y78144D01*
X18225Y78026D01*
X18245Y77909D01*
X18282Y77797D01*
X18336Y77693D01*
X18406Y77598D01*
X18491Y77515D01*
X18587Y77446D01*
X18692Y77393D01*
X18805Y77357D01*
X18921Y77340D01*
X19039Y77341D01*
X19113Y77353D01*
Y0D01*
G37*
G36*
X15536Y160000D02*X19113D01*
Y136205D01*
X19001Y136251D01*
X18771Y136306D01*
X18536Y136320D01*
X15536Y136313D01*
Y146594D01*
X15809Y147040D01*
X16201Y147985D01*
X16440Y148980D01*
X16500Y150000D01*
X16440Y151020D01*
X16201Y152015D01*
X15809Y152960D01*
X15536Y153406D01*
Y160000D01*
G37*
G36*
X11887Y3768D02*X12015Y3799D01*
X12960Y4191D01*
X13832Y4725D01*
X14610Y5390D01*
X15275Y6168D01*
X15536Y6594D01*
Y0D01*
X11887D01*
Y3768D01*
G37*
G36*
Y85130D02*X12035Y85069D01*
X12265Y85014D01*
X12500Y85000D01*
X15536Y85007D01*
Y84003D01*
X15500Y84005D01*
X15067Y83984D01*
X14637Y83922D01*
X14216Y83818D01*
X13806Y83675D01*
X13700Y83622D01*
X13604Y83553D01*
X13519Y83470D01*
X13449Y83375D01*
X13394Y83269D01*
X13357Y83157D01*
X13337Y83040D01*
X13336Y82921D01*
X13354Y82804D01*
X13390Y82691D01*
X13443Y82585D01*
X13512Y82488D01*
X13595Y82404D01*
X13691Y82333D01*
X13796Y82279D01*
X13908Y82241D01*
X14025Y82222D01*
X14144Y82221D01*
X14261Y82239D01*
X14374Y82277D01*
X14645Y82376D01*
X14925Y82444D01*
X15211Y82486D01*
X15500Y82500D01*
X15536Y82498D01*
Y76502D01*
X15500Y76500D01*
X15211Y76514D01*
X14925Y76556D01*
X14645Y76624D01*
X14372Y76720D01*
X14261Y76758D01*
X14144Y76775D01*
X14026Y76775D01*
X13909Y76755D01*
X13797Y76718D01*
X13693Y76664D01*
X13598Y76594D01*
X13515Y76509D01*
X13446Y76413D01*
X13393Y76308D01*
X13357Y76195D01*
X13340Y76079D01*
X13341Y75961D01*
X13360Y75844D01*
X13397Y75732D01*
X13452Y75627D01*
X13522Y75532D01*
X13606Y75449D01*
X13702Y75381D01*
X13808Y75330D01*
X14216Y75182D01*
X14637Y75078D01*
X15067Y75016D01*
X15500Y74995D01*
X15536Y74997D01*
Y13406D01*
X15275Y13832D01*
X14610Y14610D01*
X13832Y15275D01*
X12960Y15809D01*
X12015Y16201D01*
X11887Y16232D01*
Y77349D01*
X11960Y77337D01*
X12079Y77336D01*
X12196Y77354D01*
X12309Y77390D01*
X12415Y77443D01*
X12512Y77512D01*
X12596Y77595D01*
X12667Y77691D01*
X12721Y77796D01*
X12759Y77908D01*
X12778Y78025D01*
X12779Y78144D01*
X12761Y78261D01*
X12723Y78374D01*
X12624Y78645D01*
X12556Y78925D01*
X12514Y79211D01*
X12500Y79500D01*
X12514Y79789D01*
X12556Y80075D01*
X12624Y80355D01*
X12720Y80628D01*
X12758Y80739D01*
X12775Y80856D01*
X12775Y80974D01*
X12755Y81091D01*
X12718Y81203D01*
X12664Y81307D01*
X12594Y81402D01*
X12509Y81485D01*
X12413Y81554D01*
X12308Y81607D01*
X12195Y81643D01*
X12079Y81660D01*
X11961Y81659D01*
X11887Y81647D01*
Y85130D01*
G37*
G36*
Y127465D02*X12071Y127389D01*
X12301Y127334D01*
X12536Y127320D01*
X15536Y127327D01*
Y93993D01*
X12265Y93986D01*
X12035Y93931D01*
X11887Y93870D01*
Y127465D01*
G37*
G36*
Y143768D02*X12015Y143799D01*
X12960Y144191D01*
X13832Y144725D01*
X14610Y145390D01*
X15275Y146168D01*
X15536Y146594D01*
Y136313D01*
X12301Y136306D01*
X12071Y136251D01*
X11887Y136175D01*
Y143768D01*
G37*
G36*
Y160000D02*X15536D01*
Y153406D01*
X15275Y153832D01*
X14610Y154610D01*
X13832Y155275D01*
X12960Y155809D01*
X12015Y156201D01*
X11887Y156232D01*
Y160000D01*
G37*
G36*
X500D02*X11887D01*
Y156232D01*
X11020Y156440D01*
X10000Y156520D01*
X8980Y156440D01*
X7985Y156201D01*
X7040Y155809D01*
X6168Y155275D01*
X5390Y154610D01*
X4725Y153832D01*
X4191Y152960D01*
X3799Y152015D01*
X3560Y151020D01*
X3480Y150000D01*
X3560Y148980D01*
X3799Y147985D01*
X4191Y147040D01*
X4725Y146168D01*
X5390Y145390D01*
X6168Y144725D01*
X7040Y144191D01*
X7985Y143799D01*
X8980Y143560D01*
X10000Y143480D01*
X11020Y143560D01*
X11887Y143768D01*
Y136175D01*
X11853Y136161D01*
X11652Y136037D01*
X11472Y135884D01*
X11319Y135704D01*
X11195Y135503D01*
X11105Y135285D01*
X11050Y135055D01*
X11036Y134820D01*
X11050Y128585D01*
X11105Y128355D01*
X11195Y128137D01*
X11319Y127936D01*
X11472Y127756D01*
X11652Y127603D01*
X11853Y127479D01*
X11887Y127465D01*
Y93870D01*
X11817Y93841D01*
X11616Y93717D01*
X11436Y93564D01*
X11283Y93384D01*
X11159Y93183D01*
X11069Y92965D01*
X11014Y92735D01*
X11000Y92500D01*
X11014Y86265D01*
X11069Y86035D01*
X11159Y85817D01*
X11283Y85616D01*
X11436Y85436D01*
X11616Y85283D01*
X11817Y85159D01*
X11887Y85130D01*
Y81647D01*
X11844Y81640D01*
X11732Y81603D01*
X11627Y81548D01*
X11532Y81478D01*
X11449Y81394D01*
X11381Y81298D01*
X11330Y81192D01*
X11182Y80784D01*
X11078Y80363D01*
X11016Y79933D01*
X10995Y79500D01*
X11016Y79067D01*
X11078Y78637D01*
X11182Y78216D01*
X11325Y77806D01*
X11378Y77700D01*
X11447Y77604D01*
X11530Y77519D01*
X11625Y77449D01*
X11731Y77394D01*
X11843Y77357D01*
X11887Y77349D01*
Y16232D01*
X11020Y16440D01*
X10000Y16520D01*
X8980Y16440D01*
X7985Y16201D01*
X7040Y15809D01*
X6168Y15275D01*
X5390Y14610D01*
X4725Y13832D01*
X4191Y12960D01*
X3799Y12015D01*
X3560Y11020D01*
X3480Y10000D01*
X3560Y8980D01*
X3799Y7985D01*
X4191Y7040D01*
X4725Y6168D01*
X5390Y5390D01*
X6168Y4725D01*
X7040Y4191D01*
X7985Y3799D01*
X8980Y3560D01*
X10000Y3480D01*
X11020Y3560D01*
X11887Y3768D01*
Y0D01*
X500D01*
Y160000D01*
G37*
G36*
X46000Y153500D02*Y146500D01*
X53000D01*
Y153500D01*
X46000D01*
G37*
G36*
X12536Y134820D02*Y128820D01*
X18536D01*
Y134820D01*
X12536D01*
G37*
G54D29*X29678Y117678D03*
X10000Y150000D03*
X75000Y110000D03*
G54D30*X55000D03*
G54D31*X35000Y101500D03*
G54D29*X105000Y100000D03*
G54D32*X120000Y95000D03*
G54D29*X105000Y110000D03*
Y120000D03*
Y130000D03*
G54D28*G36*
X116600Y138400D02*Y131600D01*
X123400D01*
Y138400D01*
X116600D01*
G37*
G36*
X107100Y148400D02*Y141600D01*
X113900D01*
Y148400D01*
X107100D01*
G37*
G54D33*X59500Y150000D03*
G54D28*G36*
X72000Y133000D02*Y127000D01*
X78000D01*
Y133000D01*
X72000D01*
G37*
G54D29*X75000Y120000D03*
G54D32*X70500Y145000D03*
G54D29*X120000Y150000D03*
G54D34*X35000Y53500D03*
G54D35*X54000Y41400D03*
X35000Y29500D03*
G54D29*X76000Y30500D03*
X106000D03*
X76000Y20500D03*
X106000D03*
X76000Y10500D03*
X106000D03*
X120000Y10000D03*
X10000D03*
X75000Y100000D03*
G54D30*X55000Y90000D03*
G54D28*G36*
X12500Y92500D02*Y86500D01*
X18500D01*
Y92500D01*
X12500D01*
G37*
G54D29*X15500Y79500D03*
G54D28*G36*
X68100Y84900D02*Y78100D01*
X74900D01*
Y84900D01*
X68100D01*
G37*
G54D32*X111500Y81500D03*
G54D28*G36*
X73000Y43500D02*Y37500D01*
X79000D01*
Y43500D01*
X73000D01*
G37*
G54D29*X106000Y40500D03*
G54D32*X111000Y55500D03*
G54D28*G36*
X67600Y58900D02*Y52100D01*
X74400D01*
Y58900D01*
X67600D01*
G37*
G36*
X45500Y73500D02*Y67500D01*
X51500D01*
Y73500D01*
X45500D01*
G37*
G54D29*X58500Y70500D03*
G54D31*X35000Y66500D03*
G54D36*G54D37*G54D38*G54D39*G54D40*G54D41*G54D39*G54D36*G54D39*G54D36*G54D39*G54D36*G54D38*G54D42*G54D39*G54D38*G54D39*G54D40*G54D37*G54D36*G54D39*G54D36*G54D37*G54D41*M02*
