M48
INCH
T65C0.028
T64C0.040
T63C0.035
T62C0.028
T61C0.044
T60C0.030
T59C0.038
%
T62
X007500Y011000
X010500Y010000
X010500Y011000
X010500Y012000
X010500Y013000
X007500Y013000
X007500Y012000
X007600Y003050
X010600Y003050
X007600Y002050
X010600Y002050
X007600Y001050
X010600Y001050
X007500Y010000
X007600Y004050
X010600Y004050
T65
X003500Y005350
X005400Y004140
X003500Y002950
T60
X001554Y013182
X002968Y011768
X001550Y008950
X001550Y007950
X004850Y007050
X005850Y007050
T63
X005500Y011000
X005500Y009000
T59
X004950Y015000
X012000Y009500
X012000Y013500
X011050Y014500
X005950Y015000
X007050Y014500
X007150Y008150
X011150Y008150
X011100Y005550
X007100Y005550
T64
X003500Y010150
X003500Y006650
T61
X001000Y015000
X012000Y015000
X012000Y001000
X001000Y001000
M30
