G04 start of page 7 for group -4063 idx -4063 *
G04 Title: (unknown), componentmask *
G04 Creator: pcb 20110918 *
G04 CreationDate: Tue 15 Sep 2015 23:47:47 GMT UTC *
G04 For: ksarkies *
G04 Format: Gerber/RS-274X *
G04 PCB-Dimensions: 130000 160000 *
G04 PCB-Coordinate-Origin: lower left *
%MOIN*%
%FSLAX25Y25*%
%LNTOPMASK*%
%ADD73C,0.0910*%
%ADD72C,0.0860*%
%ADD71C,0.0700*%
%ADD70C,0.0740*%
%ADD69C,0.0850*%
%ADD68C,0.1100*%
%ADD67C,0.0660*%
%ADD66C,0.0001*%
G54D66*G36*
X46000Y153500D02*Y146500D01*
X53000D01*
Y153500D01*
X46000D01*
G37*
G36*
X12236Y135120D02*Y128520D01*
X18836D01*
Y135120D01*
X12236D01*
G37*
G54D67*X29678Y117678D03*
X75000Y110000D03*
G54D68*X55000D03*
G54D69*X35000Y101500D03*
G54D67*X105000Y100000D03*
G54D70*X120000Y95000D03*
G54D67*X105000Y110000D03*
Y120000D03*
Y130000D03*
G54D66*G36*
X116300Y138700D02*Y131300D01*
X123700D01*
Y138700D01*
X116300D01*
G37*
G36*
X106800Y148700D02*Y141300D01*
X114200D01*
Y148700D01*
X106800D01*
G37*
G54D71*X59500Y150000D03*
G54D66*G36*
X71700Y133300D02*Y126700D01*
X78300D01*
Y133300D01*
X71700D01*
G37*
G54D67*X75000Y120000D03*
G54D70*X70500Y145000D03*
G54D72*X35000Y53500D03*
G54D73*X54000Y41400D03*
X35000Y29500D03*
G54D67*X76000Y30500D03*
X106000D03*
X76000Y20500D03*
X106000D03*
X76000Y10500D03*
X106000D03*
X75000Y100000D03*
G54D68*X55000Y90000D03*
G54D66*G36*
X12200Y92800D02*Y86200D01*
X18800D01*
Y92800D01*
X12200D01*
G37*
G54D67*X15500Y79500D03*
G54D66*G36*
X67800Y85200D02*Y77800D01*
X75200D01*
Y85200D01*
X67800D01*
G37*
G54D70*X111500Y81500D03*
G54D66*G36*
X72700Y43800D02*Y37200D01*
X79300D01*
Y43800D01*
X72700D01*
G37*
G54D67*X106000Y40500D03*
G54D70*X111000Y55500D03*
G54D66*G36*
X67300Y59200D02*Y51800D01*
X74700D01*
Y59200D01*
X67300D01*
G37*
G36*
X45200Y73800D02*Y67200D01*
X51800D01*
Y73800D01*
X45200D01*
G37*
G54D67*X58500Y70500D03*
G54D69*X35000Y66500D03*
M02*
