G04 start of page 8 for group -4062 idx -4062 *
G04 Title: (unknown), soldermask *
G04 Creator: pcb 20110918 *
G04 CreationDate: Tue 15 Sep 2015 23:51:39 GMT UTC *
G04 For: ksarkies *
G04 Format: Gerber/RS-274X *
G04 PCB-Dimensions: 130000 160000 *
G04 PCB-Coordinate-Origin: lower left *
%MOIN*%
%FSLAX25Y25*%
%LNBOTTOMMASK*%
%ADD76C,0.0740*%
%ADD75C,0.0850*%
%ADD74C,0.0860*%
%ADD73C,0.0660*%
%ADD72C,0.1100*%
%ADD71C,0.0700*%
%ADD70C,0.0001*%
G54D70*G36*
X46500Y153500D02*Y146500D01*
X53500D01*
Y153500D01*
X46500D01*
G37*
G54D71*X60000Y150000D03*
G54D72*X55000Y110000D03*
G54D70*G36*
X71700Y133300D02*Y126700D01*
X78300D01*
Y133300D01*
X71700D01*
G37*
G54D73*X75000Y120000D03*
Y110000D03*
Y100000D03*
G54D70*G36*
X66300Y86200D02*Y78800D01*
X73700D01*
Y86200D01*
X66300D01*
G37*
G36*
X44200Y73300D02*Y66700D01*
X50800D01*
Y73300D01*
X44200D01*
G37*
G54D73*X57500Y70000D03*
G54D74*X35000Y54000D03*
X54000Y41900D03*
X35000Y30000D03*
G54D75*X35600Y67900D03*
G54D72*X55000Y90000D03*
G54D70*G36*
X12068Y135410D02*Y128810D01*
X18668D01*
Y135410D01*
X12068D01*
G37*
G36*
X12600Y93300D02*Y86700D01*
X19200D01*
Y93300D01*
X12600D01*
G37*
G54D73*X15900Y80000D03*
X29510Y117968D03*
G54D75*X35600Y102900D03*
G54D70*G36*
X66300Y58700D02*Y51300D01*
X73700D01*
Y58700D01*
X66300D01*
G37*
G54D73*X105000Y100000D03*
Y110000D03*
Y120000D03*
G54D76*X120000Y95000D03*
X110000Y55000D03*
Y82500D03*
G54D73*X105000Y130000D03*
G54D70*G36*
X116300Y138700D02*Y131300D01*
X123700D01*
Y138700D01*
X116300D01*
G37*
M02*
