G04 start of page 13 for group -4079 idx -4079 *
G04 Title: (unknown), topsilk *
G04 Creator: pcb 20110918 *
G04 CreationDate: Tue 15 Sep 2015 17:10:51 GMT UTC *
G04 For: ksarkies *
G04 Format: Gerber/RS-274X *
G04 PCB-Dimensions: 157480 196850 *
G04 PCB-Coordinate-Origin: lower left *
%MOIN*%
%FSLAX25Y25*%
%LNTOPSILK*%
%ADD202C,0.0060*%
%ADD201C,0.0200*%
%ADD200C,0.0100*%
G54D200*X0Y196850D02*Y0D01*
X157480D01*
X0Y196850D02*X157480D01*
Y0D02*Y196850D01*
X41000Y172850D02*G75*G03X41000Y172850I20000J0D01*G01*
X1000Y137850D02*X9000D01*
Y155850D02*Y137850D01*
X1000Y155850D02*X9000D01*
X1000D02*Y137850D01*
X69755Y135704D02*Y125996D01*
Y130850D02*X72750D01*
X50245Y125996D02*X69755D01*
X50245Y135704D02*Y125996D01*
X47250Y130850D02*X50245D01*
Y135704D02*X69755D01*
X66755D02*Y125996D01*
X66255Y135704D02*Y125996D01*
X65755Y135704D02*Y125996D01*
G54D201*X50000Y138850D02*X70000D01*
X50000Y148850D02*Y138850D01*
Y148850D02*X70000D01*
Y138850D01*
Y143850D02*X80000D01*
X40000D02*X50000D01*
G54D200*X27559Y146543D02*Y142543D01*
X25559Y144543D02*X29559D01*
X27559Y174543D02*Y170543D01*
Y148543D02*G75*G03X27559Y148543I0J10000D01*G01*
G54D201*X50000Y122850D02*X70000D01*
Y112850D01*
X50000D02*X70000D01*
X50000Y122850D02*Y112850D01*
X40000Y117850D02*X50000D01*
X70000D02*X80000D01*
G54D200*X87205Y138054D02*X112795D01*
X104922D02*Y121322D01*
X112796D01*
Y138053D02*X112795Y138054D01*
X87205Y121322D02*X95079D01*
Y138054D02*Y121322D01*
X87205Y171519D02*Y121322D01*
X112796Y171518D02*Y121322D01*
Y171518D02*X112795Y171519D01*
X87205D02*X112795D01*
G54D201*X144000Y129850D02*Y109850D01*
X134000D02*X144000D01*
X134000Y129850D02*Y109850D01*
Y129850D02*X144000D01*
X139000Y139850D02*Y129850D01*
Y109850D02*Y99850D01*
X130000Y129850D02*Y109850D01*
X120000D02*X130000D01*
X120000Y129850D02*Y109850D01*
Y129850D02*X130000D01*
X125000Y139850D02*Y129850D01*
Y109850D02*Y99850D01*
G54D200*X96938Y184775D02*Y175067D01*
X93943Y179921D02*X96938D01*
Y184775D02*X116448D01*
Y175067D01*
Y179921D02*X119443D01*
X96938Y175067D02*X116448D01*
X99938Y184775D02*Y175067D01*
X100438Y184775D02*Y175067D01*
X100938Y184775D02*Y175067D01*
X54000Y107850D02*Y67850D01*
X94000D01*
Y107850D02*Y67850D01*
X54000Y107850D02*X69000D01*
X79000D02*X94000D01*
X69000D02*G75*G03X79000Y107850I5000J0D01*G01*
X118000Y70850D02*X122000D01*
X120000Y72850D02*Y68850D01*
X146000Y70850D02*X150000D01*
X124000D02*G75*G03X124000Y70850I10000J0D01*G01*
G54D201*X114000Y96850D02*Y76850D01*
X104000D02*X114000D01*
X104000Y96850D02*Y76850D01*
Y96850D02*X114000D01*
X109000Y106850D02*Y96850D01*
Y76850D02*Y66850D01*
G54D202*X126000Y57050D02*Y550D01*
X92000Y57050D02*X126000D01*
X92000D02*Y550D01*
X126000D01*
X121000Y4050D02*Y550D01*
X97000Y4050D02*Y550D01*
Y29850D02*X121000D01*
X97000Y29750D02*Y26550D01*
X121000Y29750D02*Y26550D01*
Y23050D02*Y20050D01*
X97000Y23050D02*Y20050D01*
Y16550D02*Y13550D01*
X121000Y16550D02*Y13550D01*
Y10050D02*Y7050D01*
X97000Y10050D02*Y7050D01*
X105500Y29850D02*Y6650D01*
X112500Y29850D02*Y6350D01*
X119500Y44850D02*X118500Y43850D01*
X108500Y50350D02*Y39350D01*
X114000Y37850D02*Y32350D01*
X111000Y38350D02*X111500D01*
X113500Y48350D02*X120000D01*
Y41350D01*
X116500Y44850D02*X119500D01*
X116500D02*Y37850D01*
X123500D01*
X126000Y40350D01*
X119500Y44850D02*X118500Y45850D01*
X109500Y50350D02*Y39350D01*
X114000Y32350D02*X111000Y30850D01*
X113500Y43350D02*Y42350D01*
X109500Y49350D02*X110500D01*
X107500D02*X108500D01*
X106000D02*X106500D01*
X104500D02*X105000D01*
X104500D02*Y48350D01*
Y47350D02*Y46350D01*
Y45350D02*Y44350D01*
Y43350D02*Y42350D01*
Y41350D02*Y40350D01*
Y39350D02*Y38350D01*
X113500Y45350D02*Y44350D01*
Y39350D02*Y38350D01*
Y41350D02*Y40350D01*
X111500Y49350D02*X112000D01*
X113000D02*X113500D01*
Y48350D01*
Y47350D02*Y46350D01*
X106500Y38350D02*X107000D01*
X112000Y46850D02*Y39850D01*
X109000Y3050D02*G75*G03X112500Y6550I0J3500D01*G01*
X105500Y7050D02*G75*G03X109500Y3050I4000J0D01*G01*
X108500Y39350D02*G75*G03X109000Y38850I500J0D01*G01*
Y38852D02*G75*G03X109500Y39352I0J500D01*G01*
X114000Y32850D02*G75*G03X113500Y32350I0J-500D01*G01*
Y32351D02*G75*G03X114001Y31850I501J0D01*G01*
X114000Y37850D02*G75*G03X113000Y38850I-1000J0D01*G01*
X114500Y32350D02*G75*G03X114000Y32850I-500J0D01*G01*
X113999Y31850D02*G75*G03X114500Y32351I0J501D01*G01*
X113500Y48351D02*G75*G03X112000Y46851I0J-1500D01*G01*
Y39850D02*G75*G03X113000Y38850I1000J0D01*G01*
G54D200*X37244Y1811D02*Y21811D01*
X77244Y1811D02*X37244D01*
X77244Y21811D02*Y1811D01*
X37244Y21811D02*X77244D01*
X33600Y102650D02*X18400D01*
X33627Y102705D02*G75*G03X18373Y102705I-7627J5145D01*G01*
X18400Y86650D02*X33600D01*
X33627Y86705D02*G75*G03X18373Y86705I-7627J5145D01*G01*
X46500Y62850D02*X47000D01*
Y82850D02*Y62850D01*
X46500Y82850D02*X47000D01*
X37000D02*X37500D01*
X37000D02*Y62850D01*
X37500D01*
G54D202*X41000Y191850D02*Y187850D01*
X43000D01*
X44200Y191050D02*X45000Y191850D01*
Y187850D01*
X44200D02*X45700D01*
X78000Y165350D02*Y162350D01*
Y165350D02*X78500Y165850D01*
X79500D01*
X80000Y165350D01*
Y162850D01*
X79000Y161850D02*X80000Y162850D01*
X78500Y161850D02*X79000D01*
X78000Y162350D02*X78500Y161850D01*
X79000Y163350D02*X80000Y161850D01*
X81200Y163350D02*X83200Y165850D01*
X81200Y163350D02*X83700D01*
X83200Y165850D02*Y161850D01*
X108973Y191197D02*Y187197D01*
X110273Y191197D02*X110973Y190497D01*
Y187897D01*
X110273Y187197D02*X110973Y187897D01*
X108473Y187197D02*X110273D01*
X108473Y191197D02*X110273D01*
X112173Y190697D02*X112673Y191197D01*
X113673D01*
X114173Y190697D01*
X113673Y187197D02*X114173Y187697D01*
X112673Y187197D02*X113673D01*
X112173Y187697D02*X112673Y187197D01*
Y189397D02*X113673D01*
X114173Y190697D02*Y189897D01*
Y188897D02*Y187697D01*
Y188897D02*X113673Y189397D01*
X114173Y189897D02*X113673Y189397D01*
X15000Y124350D02*Y121350D01*
Y124350D02*X15500Y124850D01*
X16500D01*
X17000Y124350D01*
Y121850D01*
X16000Y120850D02*X17000Y121850D01*
X15500Y120850D02*X16000D01*
X15000Y121350D02*X15500Y120850D01*
X16000Y122350D02*X17000Y120850D01*
X18200Y124350D02*X18700Y124850D01*
X19700D01*
X20200Y124350D01*
X19700Y120850D02*X20200Y121350D01*
X18700Y120850D02*X19700D01*
X18200Y121350D02*X18700Y120850D01*
Y123050D02*X19700D01*
X20200Y124350D02*Y123550D01*
Y122550D02*Y121350D01*
Y122550D02*X19700Y123050D01*
X20200Y123550D02*X19700Y123050D01*
X7000Y161850D02*Y160550D01*
X6300Y159850D02*X7000Y160550D01*
X3700Y159850D02*X6300D01*
X3700D02*X3000Y160550D01*
Y161850D02*Y160550D01*
X3500Y163050D02*X6500D01*
X3500D02*X3000Y163550D01*
Y164550D02*Y163550D01*
Y164550D02*X3500Y165050D01*
X6500D01*
X7000Y164550D02*X6500Y165050D01*
X7000Y164550D02*Y163550D01*
X6500Y163050D02*X7000Y163550D01*
X3000Y166250D02*X7000D01*
X3000D02*X7000Y168750D01*
X3000D02*X7000D01*
X3000Y169950D02*X7000D01*
X3000D02*X7000Y172450D01*
X3000D02*X7000D01*
X3500Y173650D02*X3000Y174150D01*
Y175650D02*Y174150D01*
Y175650D02*X3500Y176150D01*
X4500D01*
X7000Y173650D02*X4500Y176150D01*
X7000D02*Y173650D01*
X37500Y137850D02*Y133850D01*
X36200D02*X35500Y134550D01*
Y137150D02*Y134550D01*
X36200Y137850D02*X35500Y137150D01*
X36200Y137850D02*X38000D01*
X36200Y133850D02*X38000D01*
X34300Y134350D02*X33800Y133850D01*
X32300D02*X33800D01*
X32300D02*X31800Y134350D01*
Y135350D02*Y134350D01*
X34300Y137850D02*X31800Y135350D01*
Y137850D02*X34300D01*
X45000Y149850D02*X47000D01*
X45000D02*X44500Y150350D01*
Y151350D02*Y150350D01*
X45000Y151850D02*X44500Y151350D01*
X45000Y151850D02*X46500D01*
Y153850D02*Y149850D01*
X45700Y151850D02*X44500Y153850D01*
X42800D02*X40800Y149850D01*
X43300D01*
X22559Y143543D02*Y142243D01*
X21859Y141543D02*X22559Y142243D01*
X19259Y141543D02*X21859D01*
X19259D02*X18559Y142243D01*
Y143543D02*Y142243D01*
X21059Y144743D02*X18559Y146743D01*
X21059Y147243D02*Y144743D01*
X18559Y146743D02*X22559D01*
X79500Y66850D02*X83000D01*
X79500D02*X79000Y66350D01*
Y65350D01*
X79500Y64850D01*
X83000D01*
X82200Y63650D02*X83000Y62850D01*
X79000D02*X83000D01*
X79000Y63650D02*Y62150D01*
X133992Y143322D02*Y141322D01*
X133492Y140822D01*
X132492D02*X133492D01*
X131992Y141322D02*X132492Y140822D01*
X131992Y142822D02*Y141322D01*
X129992Y142822D02*X133992D01*
X131992Y142022D02*X129992Y140822D01*
X133492Y139622D02*X133992Y139122D01*
Y138122D01*
X133492Y137622D01*
X129992Y138122D02*X130492Y137622D01*
X129992Y139122D02*Y138122D01*
X130492Y139622D02*X129992Y139122D01*
X132192D02*Y138122D01*
X132692Y137622D02*X133492D01*
X130492D02*X131692D01*
X132192Y138122D01*
X132692Y137622D02*X132192Y138122D01*
X121000Y87850D02*Y85850D01*
X120500Y85350D01*
X119500D02*X120500D01*
X119000Y85850D02*X119500Y85350D01*
X119000Y87350D02*Y85850D01*
X117000Y87350D02*X121000D01*
X119000Y86550D02*X117000Y85350D01*
X120200Y84150D02*X121000Y83350D01*
X117000D02*X121000D01*
X117000Y84150D02*Y82650D01*
X119000Y142850D02*Y140850D01*
X118500Y140350D01*
X117500D02*X118500D01*
X117000Y140850D02*X117500Y140350D01*
X117000Y142350D02*Y140850D01*
X115000Y142350D02*X119000D01*
X117000Y141550D02*X115000Y140350D01*
X118500Y139150D02*X119000Y138650D01*
Y137150D01*
X118500Y136650D01*
X117500D02*X118500D01*
X115000Y139150D02*X117500Y136650D01*
X115000Y139150D02*Y136650D01*
X93500Y55150D02*Y53850D01*
X94200Y55850D02*X93500Y55150D01*
X94200Y55850D02*X96800D01*
X97500Y55150D01*
Y53850D01*
X94000Y52650D02*X97000D01*
X97500Y52150D01*
Y51150D01*
X97000Y50650D01*
X94000D02*X97000D01*
X93500Y51150D02*X94000Y50650D01*
X93500Y52150D02*Y51150D01*
X94000Y52650D02*X93500Y52150D01*
Y49450D02*X97500D01*
X93500Y46950D01*
X97500D01*
X93500Y45750D02*X97500D01*
X93500Y43250D01*
X97500D01*
X96700Y42050D02*X97500Y41250D01*
X93500D02*X97500D01*
X93500Y42050D02*Y40550D01*
X47944Y16811D02*X49244D01*
X47244Y17511D02*X47944Y16811D01*
X47244Y20111D02*Y17511D01*
Y20111D02*X47944Y20811D01*
X49244D01*
X50444Y20311D02*Y17311D01*
Y20311D02*X50944Y20811D01*
X51944D01*
X52444Y20311D01*
Y17311D01*
X51944Y16811D02*X52444Y17311D01*
X50944Y16811D02*X51944D01*
X50444Y17311D02*X50944Y16811D01*
X53644Y20811D02*Y16811D01*
Y20811D02*X56144Y16811D01*
Y20811D02*Y16811D01*
X57344Y20811D02*Y16811D01*
Y20811D02*X59844Y16811D01*
Y20811D02*Y16811D01*
X61044Y20311D02*X61544Y20811D01*
X62544D01*
X63044Y20311D01*
X62544Y16811D02*X63044Y17311D01*
X61544Y16811D02*X62544D01*
X61044Y17311D02*X61544Y16811D01*
Y19011D02*X62544D01*
X63044Y20311D02*Y19511D01*
Y18511D02*Y17311D01*
Y18511D02*X62544Y19011D01*
X63044Y19511D02*X62544Y19011D01*
X71000Y111850D02*X73000D01*
X73500Y111350D01*
Y110350D01*
X73000Y109850D02*X73500Y110350D01*
X71500Y109850D02*X73000D01*
X71500Y111850D02*Y107850D01*
X72300Y109850D02*X73500Y107850D01*
X74700Y109350D02*X76700Y111850D01*
X74700Y109350D02*X77200D01*
X76700Y111850D02*Y107850D01*
X14000Y83350D02*Y80350D01*
Y83350D02*X14500Y83850D01*
X15500D01*
X16000Y83350D01*
Y80850D01*
X15000Y79850D02*X16000Y80850D01*
X14500Y79850D02*X15000D01*
X14000Y80350D02*X14500Y79850D01*
X15000Y81350D02*X16000Y79850D01*
X17200Y83350D02*X17700Y83850D01*
X19200D01*
X19700Y83350D01*
Y82350D01*
X17200Y79850D02*X19700Y82350D01*
X17200Y79850D02*X19700D01*
X146600Y75550D02*X147900D01*
X145900Y76250D02*X146600Y75550D01*
X145900Y78850D02*Y76250D01*
Y78850D02*X146600Y79550D01*
X147900D01*
X149100Y78750D02*X149900Y79550D01*
Y75550D01*
X149100D02*X150600D01*
X28500Y75800D02*Y73850D01*
X29550Y76850D02*X28500Y75800D01*
X29550Y76850D02*X33450D01*
X34500Y75800D01*
Y73850D01*
X33750Y72050D02*X34500Y71300D01*
Y69050D01*
X33750Y68300D01*
X32250D02*X33750D01*
X28500Y72050D02*X32250Y68300D01*
X28500Y72050D02*Y68300D01*
M02*
