M48
INCH
T173C0.029
T172C0.038
T171C0.040
T170C0.030
T169C0.124
T168C0.035
T167C0.059
T166C0.028
T165C0.028
%
T165
X005900Y007285
X008900Y007285
X008900Y008285
X008900Y010285
X005900Y010285
X005900Y009285
X005900Y008285
X008900Y009285
T166
X010900Y002985
X010900Y005385
X012800Y004175
T173
X003150Y010785
X002050Y010785
X002600Y010785
X002050Y009185
X002600Y009185
X003150Y009185
T170
X005100Y017285
X007100Y017285
X002756Y015354
X002756Y016354
X012900Y007085
X013900Y007085
T168
X004200Y006285
X004200Y008285
T172
X008000Y014385
X008000Y011785
X000500Y014185
X004000Y014385
X013900Y013985
X012500Y013985
X000500Y015185
X004000Y011785
X010900Y010685
X013900Y009985
X010900Y006685
X012500Y009985
T171
X007750Y013085
X004250Y013085
X008919Y017992
X012419Y017992
T167
X004724Y001181
X006724Y001181
T169
X001575Y001575
X014173Y018110
X001575Y018110
X014173Y001575
M30
