G04 start of page 11 for group -4063 idx -4063 *
G04 Title: (unknown), componentmask *
G04 Creator: pcb 20110918 *
G04 CreationDate: Tue 15 Sep 2015 17:10:51 GMT UTC *
G04 For: ksarkies *
G04 Format: Gerber/RS-274X *
G04 PCB-Dimensions: 157480 196850 *
G04 PCB-Coordinate-Origin: lower left *
%MOIN*%
%FSLAX25Y25*%
%LNTOPMASK*%
%ADD187R,0.0746X0.0746*%
%ADD186R,0.2478X0.2478*%
%ADD185C,0.0810*%
%ADD184C,0.0510*%
%ADD183C,0.0700*%
%ADD182C,0.1500*%
%ADD181C,0.0740*%
%ADD180C,0.0850*%
%ADD179C,0.1450*%
%ADD178C,0.1100*%
%ADD177C,0.1000*%
%ADD176C,0.0001*%
%ADD175C,0.0860*%
%ADD174C,0.0660*%
G54D174*X59000Y72850D03*
X89000D03*
Y82850D03*
G54D175*X109000Y29850D03*
G54D176*G36*
X42244Y16811D02*Y6811D01*
X52244D01*
Y16811D01*
X42244D01*
G37*
G54D177*X67244Y11811D03*
G54D178*X42000Y62850D03*
G54D179*X15748Y15748D03*
G54D176*G36*
X47700Y176150D02*Y169550D01*
X54300D01*
Y176150D01*
X47700D01*
G37*
G54D174*X71000Y172850D03*
X89000Y102850D03*
G54D180*X77500Y130850D03*
G54D176*G36*
X76300Y147550D02*Y140150D01*
X83700D01*
Y147550D01*
X76300D01*
G37*
G54D181*X80000Y117850D03*
G54D176*G36*
X1500Y145350D02*Y138350D01*
X8500D01*
Y145350D01*
X1500D01*
G37*
G54D180*X42500Y130850D03*
G54D181*X40000Y143850D03*
G54D176*G36*
X135300Y143550D02*Y136150D01*
X142700D01*
Y143550D01*
X135300D01*
G37*
G36*
X121300D02*Y136150D01*
X128700D01*
Y143550D01*
X121300D01*
G37*
G54D180*X89193Y179921D03*
X124193D03*
G54D182*X141732Y181102D03*
G54D176*G36*
X24259Y156843D02*Y150243D01*
X30859D01*
Y156843D01*
X24259D01*
G37*
G54D174*X27559Y163543D03*
G54D179*X15748Y181102D03*
G54D176*G36*
X55700Y106150D02*Y99550D01*
X62300D01*
Y106150D01*
X55700D01*
G37*
G54D174*X59000Y92850D03*
Y82850D03*
G54D183*X5000Y151850D03*
G54D176*G36*
X36300Y121550D02*Y114150D01*
X43700D01*
Y121550D01*
X36300D01*
G37*
G54D184*X31500Y107850D03*
X20500D03*
X26000D03*
X20500Y91850D03*
X26000D03*
X31500D03*
G54D178*X42000Y82850D03*
G54D174*X89000Y92850D03*
G54D176*G36*
X105300Y110550D02*Y103150D01*
X112700D01*
Y110550D01*
X105300D01*
G37*
G54D185*X109000Y53850D03*
G54D175*X128000Y41750D03*
G54D181*X139000Y99850D03*
X109000Y66850D03*
X125000Y99850D03*
G54D176*G36*
X125700Y74150D02*Y67550D01*
X132300D01*
Y74150D01*
X125700D01*
G37*
G54D174*X139000Y70850D03*
G54D182*X141732Y15748D03*
G54D186*X100000Y158724D02*Y150850D01*
G54D187*X109055Y132739D02*Y125258D01*
X90945Y132739D02*Y125258D01*
M02*
