M48
INCH
T62C0.044
T61C0.040
T60C0.028
T59C0.030
T58C0.028
T57C0.035
T56C0.038
%
T58
X007500Y013000
X007500Y012000
X007500Y011000
X007500Y010000
X010500Y010000
X010500Y011000
X010500Y012000
X010500Y013000
T60
X003500Y005400
X005400Y004190
X003500Y003000
T59
X004750Y007000
X005750Y007000
X001537Y013211
X001590Y009000
X001590Y008000
X002951Y011797
T57
X005500Y011000
X005500Y009000
T56
X005000Y015000
X006000Y015000
X007000Y008250
X007000Y005500
X012000Y009500
X011000Y005500
X011000Y008250
X012000Y013500
T61
X003560Y006790
X003560Y010290
T62
X001000Y001000
X001000Y015000
X012000Y015000
X012000Y001000
M30
