G04 start of page 2 for group 0 idx 0 *
G04 Title: (unknown), top *
G04 Creator: pcb 20110918 *
G04 CreationDate: Tue 15 Sep 2015 23:51:39 GMT UTC *
G04 For: ksarkies *
G04 Format: Gerber/RS-274X *
G04 PCB-Dimensions: 130000 160000 *
G04 PCB-Coordinate-Origin: lower left *
%MOIN*%
%FSLAX25Y25*%
%LNTOP*%
%ADD26C,0.0440*%
%ADD25C,0.0280*%
%ADD24C,0.0300*%
%ADD23C,0.0280*%
%ADD22C,0.0350*%
%ADD21C,0.0380*%
%ADD20C,0.0680*%
%ADD19C,0.0650*%
%ADD18C,0.0800*%
%ADD17C,0.0600*%
%ADD16C,0.0800*%
%ADD15C,0.0700*%
%ADD14C,0.0001*%
%ADD13C,0.0450*%
%ADD12C,0.0100*%
%ADD11C,0.0400*%
G54D11*X53500Y76000D02*X81000D01*
X95000Y90000D01*
Y100000D01*
X105000Y110000D01*
X120000Y95000D01*
Y135000D02*X110000D01*
X105000Y130000D01*
Y120000D01*
Y130000D02*X75000D01*
G54D12*X55000Y110000D02*X75000D01*
G54D11*X52600Y120100D02*X74900D01*
G54D12*X75000Y120000D01*
X105000Y100000D02*Y87500D01*
X110000Y82500D01*
Y55000D01*
G54D11*X16100Y132842D02*X15900Y90000D01*
G54D12*X37500D01*
G54D11*X50000Y150000D02*X30858D01*
X15368Y132110D01*
G54D12*X16100Y132842D01*
G54D11*X35000Y54000D02*Y57500D01*
X53500Y76000D01*
G54D12*X37500Y90000D02*X45000Y82500D01*
X70000D01*
G54D13*X52500Y120000D02*X35000Y102500D01*
G54D11*X52500Y120000D01*
X30242Y118700D01*
G54D12*X52311Y119811D01*
G54D14*G36*
X46500Y153500D02*Y146500D01*
X53500D01*
Y153500D01*
X46500D01*
G37*
G54D15*X60000Y150000D03*
G54D16*X55000Y110000D03*
G54D14*G36*
X72000Y133000D02*Y127000D01*
X78000D01*
Y133000D01*
X72000D01*
G37*
G54D17*X75000Y120000D03*
Y110000D03*
Y100000D03*
G54D14*G36*
X66600Y85900D02*Y79100D01*
X73400D01*
Y85900D01*
X66600D01*
G37*
G36*
X44500Y73000D02*Y67000D01*
X50500D01*
Y73000D01*
X44500D01*
G37*
G54D17*X57500Y70000D03*
G54D18*X35000Y54000D03*
X54000Y41900D03*
X35000Y30000D03*
G54D19*X35600Y67900D03*
G54D16*X55000Y90000D03*
G54D14*G36*
X12368Y135110D02*Y129110D01*
X18368D01*
Y135110D01*
X12368D01*
G37*
G36*
X12900Y93000D02*Y87000D01*
X18900D01*
Y93000D01*
X12900D01*
G37*
G54D17*X15900Y80000D03*
X10000Y10000D03*
X29510Y117968D03*
G54D19*X35600Y102900D03*
G54D14*G36*
X66600Y58400D02*Y51600D01*
X73400D01*
Y58400D01*
X66600D01*
G37*
G54D17*X10000Y150000D03*
X105000Y100000D03*
Y110000D03*
Y120000D03*
G54D20*X120000Y95000D03*
X110000Y55000D03*
Y82500D03*
G54D17*X105000Y130000D03*
G54D14*G36*
X116600Y138400D02*Y131600D01*
X123400D01*
Y138400D01*
X116600D01*
G37*
G54D17*X120000Y150000D03*
Y10000D03*
G54D21*G54D22*G54D23*G54D21*G54D24*G54D25*G54D11*G54D22*G54D24*G54D26*G54D24*G54D11*G54D21*G54D26*G54D23*G54D21*G54D23*G54D21*G54D26*M02*
