G04 start of page 7 for group 5 idx 5 *
G04 Title: (unknown), bottom *
G04 Creator: pcb 20110918 *
G04 CreationDate: Tue 15 Sep 2015 17:39:26 GMT UTC *
G04 For: ksarkies *
G04 Format: Gerber/RS-274X *
G04 PCB-Dimensions: 157480 196850 *
G04 PCB-Coordinate-Origin: lower left *
%MOIN*%
%FSLAX25Y25*%
%LNBOTTOM*%
%ADD142C,0.0290*%
%ADD141C,0.0400*%
%ADD140C,0.0300*%
%ADD139C,0.0350*%
%ADD138C,0.0280*%
%ADD137C,0.0380*%
%ADD136C,0.1240*%
%ADD135C,0.0590*%
%ADD134C,0.0280*%
%ADD133C,0.1450*%
%ADD132C,0.0750*%
%ADD131C,0.0450*%
%ADD130C,0.0700*%
%ADD129C,0.0650*%
%ADD128C,0.0800*%
%ADD127C,0.0680*%
%ADD126C,0.0600*%
%ADD125C,0.1400*%
%ADD124C,0.1000*%
%ADD123C,0.0001*%
%ADD122C,0.0800*%
G54D122*X109000Y29850D03*
G54D123*G36*
X42244Y16811D02*Y6811D01*
X52244D01*
Y16811D01*
X42244D01*
G37*
G54D124*X67244Y11811D03*
G54D125*X15748Y15748D03*
G54D123*G36*
X27600Y47250D02*Y40450D01*
X34400D01*
Y47250D01*
X27600D01*
G37*
G36*
Y60250D02*Y53450D01*
X34400D01*
Y60250D01*
X27600D01*
G37*
G54D126*X89000Y72850D03*
G54D127*X71000Y43850D03*
Y56850D03*
G54D126*X89000Y82850D03*
Y92850D03*
Y102850D03*
G54D128*X43000Y82850D03*
G54D123*G36*
X48000Y175850D02*Y169850D01*
X54000D01*
Y175850D01*
X48000D01*
G37*
G54D126*X71000Y172850D03*
G54D129*X77500Y130850D03*
G54D123*G36*
X76600Y147250D02*Y140450D01*
X83400D01*
Y147250D01*
X76600D01*
G37*
G54D127*X80000Y117850D03*
G54D123*G36*
X1500Y145350D02*Y138350D01*
X8500D01*
Y145350D01*
X1500D01*
G37*
G54D129*X42500Y130850D03*
G54D127*X40000Y143850D03*
G54D123*G36*
X24559Y156543D02*Y150543D01*
X30559D01*
Y156543D01*
X24559D01*
G37*
G54D126*X27559Y163543D03*
G54D125*X15748Y181102D03*
G54D130*X5000Y151850D03*
G54D123*G36*
X36600Y121250D02*Y114450D01*
X43400D01*
Y121250D01*
X36600D01*
G37*
G54D131*X31500Y107850D03*
X20500D03*
X26000D03*
X20500Y91850D03*
X26000D03*
X31500D03*
G54D123*G36*
X56000Y105850D02*Y99850D01*
X62000D01*
Y105850D01*
X56000D01*
G37*
G54D126*X59000Y92850D03*
Y82850D03*
Y72850D03*
G54D128*X43000Y102850D03*
G54D123*G36*
X105600Y110250D02*Y103450D01*
X112400D01*
Y110250D01*
X105600D01*
G37*
G54D132*X109000Y53850D03*
G54D122*X128000Y41750D03*
G54D127*X109000Y66850D03*
G54D123*G36*
X126000Y73850D02*Y67850D01*
X132000D01*
Y73850D01*
X126000D01*
G37*
G54D126*X139000Y70850D03*
G54D133*X141732Y15748D03*
G54D129*X126000Y129350D03*
G54D133*X141732Y181102D03*
G54D129*X126000Y164350D03*
G54D134*G54D135*G54D136*G54D137*G54D138*G54D137*G54D138*G54D139*G54D140*G54D141*G54D137*G54D141*G54D137*G54D140*G54D136*G54D137*G54D142*G54D138*G54D139*G54D137*G54D134*G54D137*G54D140*G54D136*G54D141*G54D136*G54D141*M02*
