G04 start of page 2 for group 0 idx 0 *
G04 Title: (unknown), top *
G04 Creator: pcb 20110918 *
G04 CreationDate: Tue 15 Sep 2015 17:39:26 GMT UTC *
G04 For: ksarkies *
G04 Format: Gerber/RS-274X *
G04 PCB-Dimensions: 157480 196850 *
G04 PCB-Coordinate-Origin: lower left *
%MOIN*%
%FSLAX25Y25*%
%LNTOP*%
%ADD37C,0.0290*%
%ADD36C,0.0300*%
%ADD35C,0.0350*%
%ADD34C,0.0280*%
%ADD33C,0.0380*%
%ADD32C,0.1240*%
%ADD31C,0.0590*%
%ADD30C,0.0280*%
%ADD29R,0.0630X0.0630*%
%ADD28R,0.2362X0.2362*%
%ADD27C,0.1450*%
%ADD26C,0.0750*%
%ADD25C,0.0450*%
%ADD24C,0.0700*%
%ADD23C,0.0650*%
%ADD22C,0.0680*%
%ADD21C,0.0600*%
%ADD20C,0.1400*%
%ADD19C,0.0001*%
%ADD18C,0.0800*%
%ADD17C,0.0800*%
%ADD16C,0.0400*%
%ADD15C,0.0850*%
%ADD14C,0.1000*%
%ADD13C,0.0900*%
%ADD12C,0.0250*%
%ADD11C,0.0100*%
G54D11*X30700Y108050D02*X30500Y107850D01*
X26000Y110850D02*Y90850D01*
G54D12*X32000Y91850D02*Y69850D01*
X36000Y65850D01*
G54D13*X47244Y23622D02*Y11811D01*
G54D11*X31000Y43850D02*Y32850D01*
X32000Y31850D01*
G54D14*X6000Y30850D02*X38559D01*
X40000D02*X47244Y23622D01*
G54D13*X5000Y140850D02*Y30850D01*
G54D11*X90000Y102850D02*X54000D01*
G54D12*X103000Y106850D02*X89000Y92850D01*
X77000D02*X90000D01*
G54D15*X109000Y106850D02*Y125850D01*
G54D12*X88000Y83850D02*X89000Y82850D01*
G54D11*X42000D02*X59000D01*
X80000Y72850D02*X89000D01*
G54D12*X67000Y65850D02*X72000Y70850D01*
X36000Y65850D02*X67000D01*
X105000Y66850D02*X88000Y83850D01*
G54D15*X109000Y52850D02*Y65850D01*
G54D12*Y66850D02*X105000D01*
G54D15*X110000Y65850D02*X124000D01*
X129000Y70850D01*
G54D12*X72000Y87850D02*X77000Y92850D01*
X72000Y70850D02*Y87850D01*
G54D11*X71000Y43850D02*Y63850D01*
X80000Y72850D01*
G54D16*X109000Y125850D02*X108000Y126850D01*
G54D11*Y117850D02*X109000Y118850D01*
G54D15*X71000Y172850D02*X80000D01*
X93000Y159850D01*
X126929Y163543D02*X94000Y162850D01*
G54D12*X109000Y106850D02*X103000D01*
G54D11*X80000Y117850D02*X108000D01*
G54D12*X78000Y142850D02*Y131850D01*
Y130850D02*X90000D01*
X91000Y129850D01*
G54D11*X54000Y102850D02*X40000Y116850D01*
X32000D01*
X26000Y110850D01*
G54D12*X20000Y116850D02*X34000Y130850D01*
X42000D01*
X20000Y90850D02*Y116850D01*
X42000Y130850D02*Y140850D01*
X39000Y143850D01*
X40000Y142850D01*
G54D17*X5000Y141850D02*X15748Y141732D01*
X23622Y149606D01*
X27559Y153543D01*
X35630Y157480D01*
X35433D02*X51000Y172850D01*
G54D18*X109000Y29850D03*
G54D19*G36*
X42244Y16811D02*Y6811D01*
X52244D01*
Y16811D01*
X42244D01*
G37*
G54D14*X67244Y11811D03*
G54D20*X15748Y15748D03*
G54D19*G36*
X27600Y47250D02*Y40450D01*
X34400D01*
Y47250D01*
X27600D01*
G37*
G36*
Y60250D02*Y53450D01*
X34400D01*
Y60250D01*
X27600D01*
G37*
G54D21*X89000Y72850D03*
G54D22*X71000Y43850D03*
Y56850D03*
G54D21*X89000Y82850D03*
Y92850D03*
Y102850D03*
G54D17*X43000Y82850D03*
G54D19*G36*
X48000Y175850D02*Y169850D01*
X54000D01*
Y175850D01*
X48000D01*
G37*
G54D21*X71000Y172850D03*
G54D23*X77500Y130850D03*
G54D19*G36*
X76600Y147250D02*Y140450D01*
X83400D01*
Y147250D01*
X76600D01*
G37*
G54D22*X80000Y117850D03*
G54D19*G36*
X1500Y145350D02*Y138350D01*
X8500D01*
Y145350D01*
X1500D01*
G37*
G54D23*X42500Y130850D03*
G54D22*X40000Y143850D03*
G54D19*G36*
X24559Y156543D02*Y150543D01*
X30559D01*
Y156543D01*
X24559D01*
G37*
G54D21*X27559Y163543D03*
G54D20*X15748Y181102D03*
G54D24*X5000Y151850D03*
G54D19*G36*
X36600Y121250D02*Y114450D01*
X43400D01*
Y121250D01*
X36600D01*
G37*
G54D25*X31500Y107850D03*
X20500D03*
X26000D03*
X20500Y91850D03*
X26000D03*
X31500D03*
G54D19*G36*
X56000Y105850D02*Y99850D01*
X62000D01*
Y105850D01*
X56000D01*
G37*
G54D21*X59000Y92850D03*
Y82850D03*
Y72850D03*
G54D17*X43000Y102850D03*
G54D19*G36*
X105600Y110250D02*Y103450D01*
X112400D01*
Y110250D01*
X105600D01*
G37*
G54D26*X109000Y53850D03*
G54D18*X128000Y41750D03*
G54D22*X109000Y66850D03*
G54D19*G36*
X126000Y73850D02*Y67850D01*
X132000D01*
Y73850D01*
X126000D01*
G37*
G54D21*X139000Y70850D03*
G54D27*X141732Y15748D03*
G54D23*X126000Y129350D03*
G54D27*X141732Y181102D03*
G54D23*X126000Y164350D03*
G54D28*X100000Y158724D02*Y150850D01*
G54D29*X109055Y132739D02*Y125258D01*
X90945Y132739D02*Y125258D01*
G54D30*G54D31*G54D32*G54D33*G54D34*G54D33*G54D34*G54D35*G54D36*G54D16*G54D33*G54D16*G54D33*G54D36*G54D32*G54D33*G54D37*G54D34*G54D35*G54D33*G54D30*G54D33*G54D36*G54D32*G54D16*G54D32*G54D16*M02*
